<svg id="svg" version="1.1" xmlns="http://www.w3.org/2000/svg" xmlns:xlink="http://www.w3.org/1999/xlink" width="400" height="133.33333333333334" viewBox="0, 0, 400,133.33333333333334"><g id="svgg"><path id="path0" d="M209.204 52.712 C 206.021 62.408,209.799 71.756,216.986 71.968 C 223.915 72.172,228.084 68.297,229.840 60.022 C 230.255 58.068,230.232 58.007,229.083 58.002 C 228.717 58.001,227.779 57.887,227.000 57.750 C 225.177 57.429,225.167 57.430,225.167 57.890 C 225.167 60.263,222.994 64.472,221.324 65.334 C 215.333 68.428,211.153 61.425,213.897 52.890 C 214.028 52.482,213.302 52.174,211.428 51.842 C 209.612 51.520,209.592 51.528,209.204 52.712 M247.180 54.011 C 246.592 54.089,246.024 54.186,245.920 54.226 C 245.790 54.275,245.936 54.932,246.371 56.261 C 246.725 57.339,247.689 60.545,248.515 63.385 C 249.341 66.224,250.128 68.764,250.264 69.028 L 250.513 69.508 253.965 69.412 C 255.863 69.359,257.649 69.281,257.933 69.238 L 258.450 69.161 258.553 67.372 C 258.610 66.388,258.823 63.279,259.028 60.463 C 259.232 57.648,259.363 55.307,259.318 55.262 C 259.044 54.989,253.581 53.863,253.401 54.044 C 253.361 54.084,253.280 54.843,253.222 55.731 C 253.084 57.826,253.022 57.825,252.122 55.704 L 251.363 53.917 249.807 53.893 C 248.950 53.881,247.769 53.934,247.180 54.011 M187.167 55.972 L 184.250 56.936 184.135 58.176 C 183.233 67.861,191.575 72.613,201.133 67.859 C 204.631 66.119,204.712 66.011,204.094 63.941 C 203.097 60.604,203.057 60.564,201.676 61.507 C 199.644 62.894,197.052 63.598,195.021 63.315 C 190.715 62.714,189.201 60.598,190.086 56.417 C 190.371 55.074,190.377 54.999,190.208 55.004 C 190.140 55.006,188.771 55.441,187.167 55.972 M240.663 55.742 C 240.161 55.956,239.150 56.392,238.417 56.712 C 237.683 57.031,236.952 57.337,236.792 57.391 C 236.611 57.452,236.497 57.665,236.492 57.953 C 236.488 58.208,236.347 60.967,236.180 64.083 C 236.013 67.200,235.923 69.798,235.980 69.856 C 236.112 69.992,240.808 70.369,240.987 70.258 C 241.061 70.212,241.173 68.354,241.235 66.129 C 241.298 63.904,241.423 60.592,241.512 58.768 C 241.702 54.904,241.801 55.257,240.663 55.742 M137.413 57.066 C 135.304 57.727,135.081 58.262,135.413 61.868 C 135.791 65.971,136.340 71.042,136.420 71.173 C 136.554 71.389,142.097 70.484,142.351 70.204 C 142.474 70.070,142.062 66.450,141.430 62.096 C 141.203 60.531,140.966 58.779,140.903 58.202 C 140.751 56.804,139.524 56.404,137.413 57.066 M164.508 61.250 C 163.758 62.350,162.389 64.334,161.466 65.659 L 159.788 68.068 160.598 68.771 C 161.631 69.667,164.628 71.543,164.829 71.419 C 164.913 71.368,165.560 70.408,166.268 69.288 C 167.831 66.813,169.781 63.876,171.495 61.417 C 172.198 60.408,172.816 59.508,172.870 59.417 C 172.934 59.308,171.739 59.250,169.420 59.250 L 165.873 59.250 164.508 61.250 " stroke="none" fill="#f2c335" fill-rule="evenodd"></path><path id="path1" d="M165.091 38.724 C 164.858 38.894,164.813 39.062,164.902 39.418 C 165.270 40.884,170.033 49.831,170.447 49.832 C 171.009 49.835,170.800 49.102,169.606 46.887 C 168.923 45.619,167.949 43.630,167.442 42.467 C 165.675 38.416,165.624 38.334,165.091 38.724 M247.458 39.112 C 247.298 39.155,247.167 39.324,247.167 39.487 C 247.167 40.153,250.368 49.423,251.603 52.333 L 252.417 54.250 252.464 52.728 C 252.508 51.349,252.463 51.082,251.988 49.894 C 251.699 49.173,251.125 47.533,250.712 46.250 C 248.221 38.516,248.379 38.862,247.458 39.112 M262.000 39.188 C 262.000 39.291,261.851 41.222,261.670 43.479 C 261.196 49.364,260.561 57.807,260.165 63.500 C 259.977 66.204,259.769 68.792,259.703 69.250 L 259.583 70.083 255.167 70.220 C 250.168 70.374,250.410 70.304,250.763 71.490 L 251.027 72.379 252.805 72.275 C 253.783 72.218,256.166 72.122,258.101 72.061 L 261.619 71.951 261.890 68.351 C 262.039 66.370,262.390 61.975,262.670 58.583 C 262.950 55.192,263.251 51.217,263.340 49.750 C 263.429 48.283,263.575 46.357,263.665 45.469 C 263.754 44.581,263.877 42.811,263.938 41.536 L 264.049 39.218 263.504 39.109 C 262.674 38.943,262.000 38.978,262.000 39.188 M202.591 40.042 C 202.453 40.863,201.500 48.115,201.497 48.365 C 201.490 49.008,201.277 49.046,199.384 48.743 C 198.375 48.582,197.300 48.500,196.978 48.561 C 192.746 49.355,189.132 58.641,192.153 60.958 C 193.002 61.610,193.446 61.689,193.150 61.136 C 192.064 59.107,195.109 52.283,197.729 50.874 C 198.350 50.540,200.492 50.515,202.142 50.823 C 203.432 51.064,203.245 51.332,203.648 48.665 C 205.121 38.903,205.114 39.500,203.758 39.500 L 202.682 39.500 202.591 40.042 M153.519 41.036 C 154.473 43.424,154.543 43.729,154.624 45.840 C 154.887 52.719,149.503 58.622,143.254 58.307 L 141.979 58.242 142.086 59.080 C 142.145 59.540,142.525 62.329,142.930 65.278 C 143.335 68.226,143.667 70.779,143.667 70.950 C 143.667 71.243,138.852 72.334,137.562 72.334 C 137.005 72.333,136.821 72.695,136.939 73.557 C 137.096 74.701,137.148 74.716,139.715 74.338 C 144.300 73.665,145.884 73.216,145.763 72.627 C 145.485 71.269,143.999 61.087,144.000 60.542 C 144.000 60.391,144.410 60.333,145.494 60.333 C 153.813 60.333,159.609 49.685,155.245 42.417 C 154.096 40.503,152.935 39.575,153.519 41.036 M227.884 42.000 C 231.948 49.386,232.657 55.842,230.220 63.243 C 227.909 70.258,224.033 73.397,217.667 73.411 L 214.917 73.417 213.456 72.715 C 211.769 71.904,211.722 72.095,213.270 73.475 C 216.728 76.557,223.667 76.130,227.658 72.589 C 234.950 66.118,235.527 49.646,228.710 42.541 C 227.534 41.314,227.493 41.287,227.884 42.000 M184.918 43.872 C 184.769 44.080,183.655 45.750,182.441 47.583 C 180.436 50.612,174.918 58.562,171.913 62.750 C 171.256 63.667,169.457 66.310,167.915 68.625 C 166.293 71.061,165.006 72.833,164.859 72.833 C 164.613 72.833,162.021 71.424,160.509 70.468 C 159.635 69.916,159.500 69.895,159.500 70.314 C 159.500 70.661,160.160 71.213,161.399 71.901 C 161.848 72.150,162.655 72.652,163.192 73.017 C 164.306 73.773,166.448 74.838,166.829 74.824 C 166.973 74.819,168.487 72.693,170.320 69.920 C 172.101 67.228,174.051 64.348,174.654 63.520 C 181.485 54.141,187.442 45.170,187.055 44.843 C 186.768 44.600,185.575 43.718,185.385 43.608 C 185.273 43.543,185.070 43.658,184.918 43.872 M141.264 46.495 C 140.147 46.941,140.179 46.840,140.439 49.083 C 140.736 51.655,140.673 51.528,141.623 51.468 L 142.417 51.417 142.344 50.583 C 142.184 48.733,142.145 48.828,143.250 48.402 C 143.924 48.143,144.617 48.014,145.375 48.009 C 146.710 47.998,146.798 47.820,145.930 46.873 L 145.359 46.250 143.721 46.208 C 142.412 46.175,141.919 46.233,141.264 46.495 M219.249 48.631 C 214.488 50.288,212.351 60.534,216.083 63.810 C 216.851 64.485,217.064 64.354,216.665 63.452 C 214.593 58.768,218.048 50.500,222.078 50.500 C 222.956 50.500,223.010 50.346,222.408 49.557 C 221.615 48.518,220.507 48.193,219.249 48.631 M242.767 53.783 C 242.635 59.642,242.394 66.697,242.230 69.476 L 242.119 71.369 239.101 71.309 L 236.083 71.250 236.033 72.021 C 235.995 72.612,236.047 72.816,236.257 72.896 C 236.568 73.016,243.979 73.412,244.070 73.314 C 244.269 73.101,244.901 56.256,244.762 54.877 C 244.663 53.893,243.274 49.068,243.008 48.783 C 242.939 48.710,242.831 50.960,242.767 53.783 M272.330 51.704 C 272.322 53.471,271.173 54.958,268.973 56.047 C 266.662 57.190,266.085 58.117,266.695 59.703 C 267.026 60.564,268.491 60.218,269.220 59.106 C 269.366 58.882,270.059 58.427,270.758 58.095 C 274.504 56.318,275.600 52.524,272.792 51.063 L 272.333 50.825 272.330 51.704 M126.000 52.482 C 126.000 52.577,126.142 53.013,126.315 53.452 C 127.030 55.266,127.216 58.689,126.631 59.274 C 126.232 59.673,125.638 59.450,124.738 58.563 C 124.066 57.901,122.037 56.748,121.855 56.925 C 121.602 57.170,123.039 58.424,124.348 59.100 C 125.167 59.523,125.992 60.066,126.181 60.306 C 126.943 61.275,128.196 61.650,128.688 61.058 C 129.456 60.132,128.550 54.878,127.384 53.492 C 126.877 52.889,126.000 52.250,126.000 52.482 M281.396 54.125 C 281.094 55.063,280.892 55.390,280.248 55.984 C 279.440 56.729,277.785 57.333,276.553 57.333 C 275.642 57.333,274.919 57.956,274.744 58.890 C 274.519 60.090,274.875 60.234,276.691 59.673 C 277.273 59.493,278.200 59.294,278.750 59.230 C 282.473 58.800,284.426 56.360,282.599 54.421 C 281.994 53.780,281.542 53.669,281.396 54.125 M117.500 56.142 C 117.500 56.238,117.727 56.654,118.005 57.065 C 119.347 59.053,119.038 59.635,117.007 58.950 C 116.275 58.702,115.355 58.498,114.963 58.495 C 114.571 58.492,113.854 58.352,113.370 58.185 C 112.330 57.826,112.150 57.978,112.724 58.730 C 113.327 59.521,115.097 60.320,116.655 60.503 C 117.349 60.585,118.360 60.810,118.903 61.004 C 120.681 61.639,121.157 61.008,120.226 59.249 C 119.503 57.883,117.500 55.600,117.500 56.142 M204.588 61.226 C 204.302 61.435,204.325 61.564,205.050 63.731 L 205.814 66.016 204.814 66.799 C 199.436 71.019,192.464 72.249,188.282 69.717 C 186.935 68.901,186.953 69.104,188.342 70.390 C 192.412 74.158,199.100 73.896,205.362 69.723 C 208.258 67.793,208.136 68.249,206.748 64.544 C 205.658 61.634,205.133 60.828,204.588 61.226 M281.211 62.333 C 281.266 62.563,281.393 63.078,281.494 63.480 C 282.299 66.675,277.675 69.478,274.184 67.911 C 272.211 67.026,269.529 68.868,270.492 70.448 C 271.158 71.540,271.910 71.560,273.052 70.517 C 274.329 69.348,274.623 69.274,275.784 69.823 C 279.215 71.445,283.548 69.247,283.548 65.883 C 283.548 64.836,282.606 63.054,281.681 62.350 L 281.112 61.917 281.211 62.333 M122.596 65.792 C 123.130 67.043,123.167 67.207,123.167 68.331 C 123.167 70.465,122.140 71.059,120.687 69.768 C 119.427 68.649,118.910 68.539,117.630 69.114 C 116.374 69.677,114.900 69.734,113.541 69.271 C 112.351 68.866,112.216 68.969,112.895 69.763 C 114.365 71.481,117.758 72.167,119.555 71.110 C 120.563 70.518,120.897 70.587,122.314 71.680 C 125.430 74.083,126.481 69.325,123.536 66.144 C 122.488 65.013,122.220 64.912,122.596 65.792 M278.208 94.282 C 278.369 94.323,278.631 94.323,278.792 94.282 C 278.952 94.240,278.821 94.205,278.500 94.205 C 278.179 94.205,278.048 94.240,278.208 94.282 M278.042 98.448 C 278.202 98.490,278.465 98.490,278.625 98.448 C 278.785 98.406,278.654 98.372,278.333 98.372 C 278.012 98.372,277.881 98.406,278.042 98.448 " stroke="none" fill="#040506" fill-rule="evenodd"></path><path id="path2" d="M141.576 36.347 C 138.228 36.738,134.935 37.715,132.546 39.025 C 131.057 39.842,131.161 39.597,131.429 41.649 C 131.553 42.602,131.698 43.877,131.751 44.482 C 131.804 45.088,132.103 47.608,132.414 50.083 C 132.725 52.558,133.024 55.033,133.077 55.583 C 133.383 58.720,133.548 60.120,133.827 61.917 C 133.998 63.017,134.182 64.367,134.237 64.917 C 134.334 65.895,134.480 66.899,135.106 70.888 L 135.415 72.859 136.166 72.749 C 136.579 72.689,136.988 72.570,137.075 72.486 C 137.162 72.402,137.387 72.333,137.575 72.334 C 138.855 72.334,143.667 71.241,143.667 70.950 C 143.667 70.779,143.335 68.226,142.930 65.278 C 142.525 62.329,142.145 59.540,142.086 59.080 L 141.979 58.242 143.254 58.307 C 149.500 58.622,154.873 52.734,154.630 45.840 C 154.383 38.829,149.670 35.401,141.576 36.347 M253.171 36.729 C 253.072 36.828,253.000 37.815,252.999 39.075 C 252.999 40.271,252.917 42.487,252.818 44.000 C 252.719 45.512,252.588 48.438,252.527 50.500 L 252.417 54.250 251.603 52.333 C 250.259 49.167,247.167 40.138,247.167 39.382 C 247.167 39.160,247.042 38.598,246.890 38.132 L 246.612 37.285 244.681 37.395 C 242.365 37.526,241.645 37.604,238.500 38.064 L 236.083 38.417 236.040 39.750 C 236.004 40.854,235.408 49.838,235.078 54.250 C 234.982 55.534,234.903 57.221,234.750 61.250 C 234.694 62.717,234.536 65.484,234.398 67.399 C 234.260 69.314,234.208 70.940,234.282 71.013 C 234.356 71.086,236.150 71.192,238.268 71.248 L 242.120 71.351 242.231 69.467 C 242.394 66.696,242.635 59.635,242.767 53.783 C 242.831 50.960,242.939 48.710,243.008 48.783 C 243.183 48.970,244.667 53.798,244.667 54.180 C 244.667 54.352,244.810 54.963,244.985 55.538 C 245.334 56.682,245.665 57.894,245.751 58.336 C 245.781 58.492,245.971 59.173,246.174 59.851 C 246.377 60.529,246.751 61.871,247.004 62.833 C 247.258 63.796,247.625 65.183,247.820 65.917 C 248.015 66.650,248.203 67.400,248.237 67.583 C 248.662 69.877,249.639 71.068,250.627 70.501 C 250.786 70.409,252.867 70.278,255.250 70.209 L 259.583 70.083 259.703 69.250 C 259.769 68.792,259.977 66.204,260.165 63.500 C 260.759 54.969,261.514 45.243,262.122 38.307 L 262.205 37.364 261.144 37.272 C 259.144 37.098,254.250 36.656,253.796 36.607 C 253.546 36.581,253.264 36.636,253.171 36.729 M161.913 37.926 C 160.998 38.597,159.575 39.636,158.750 40.234 C 156.212 42.075,156.042 42.248,156.321 42.699 C 156.452 42.911,156.880 43.700,157.272 44.454 C 158.122 46.087,158.996 47.686,159.167 47.917 C 159.235 48.008,159.758 48.983,160.329 50.083 C 160.901 51.183,161.425 52.158,161.495 52.250 C 161.566 52.342,162.152 53.429,162.799 54.667 C 163.446 55.904,164.145 57.224,164.353 57.601 L 164.731 58.285 164.122 59.184 C 162.535 61.524,161.326 63.226,158.656 66.878 C 157.332 68.690,157.324 68.754,158.354 69.312 C 158.755 69.529,159.458 69.911,159.917 70.160 C 160.375 70.409,161.612 71.112,162.667 71.722 C 163.721 72.332,164.703 72.832,164.848 72.832 C 165.010 72.833,166.207 71.191,167.915 68.625 C 169.457 66.310,171.256 63.667,171.913 62.750 C 174.954 58.512,180.442 50.603,182.438 47.583 C 183.650 45.750,184.803 44.043,185.001 43.791 C 185.517 43.132,185.558 43.168,179.587 39.042 C 177.975 37.928,178.090 37.895,176.929 39.798 C 175.990 41.336,175.268 42.469,172.836 46.219 C 172.252 47.119,171.569 48.090,171.318 48.378 C 171.067 48.666,170.819 49.111,170.768 49.367 C 170.717 49.624,170.579 49.833,170.462 49.832 C 169.994 49.830,165.218 40.782,164.863 39.223 C 164.679 38.417,163.972 36.866,163.746 36.775 C 163.653 36.737,162.828 37.255,161.913 37.926 M199.250 37.767 C 197.305 38.178,193.553 39.922,192.411 40.946 C 192.225 41.113,191.587 41.657,190.994 42.155 C 190.402 42.653,189.743 43.253,189.531 43.488 C 189.319 43.724,188.789 44.292,188.355 44.750 C 187.921 45.208,187.340 45.921,187.064 46.333 C 186.789 46.746,186.340 47.421,186.067 47.833 C 182.374 53.414,181.802 62.613,184.889 66.790 C 187.089 69.766,190.122 71.137,194.083 70.945 C 198.215 70.744,201.385 69.524,204.779 66.829 L 205.808 66.012 205.051 63.631 C 204.238 61.076,203.436 59.167,203.176 59.167 C 203.088 59.167,202.243 59.635,201.299 60.207 C 197.612 62.444,194.416 62.695,192.113 60.928 C 189.129 58.638,192.784 49.348,196.978 48.561 C 197.300 48.500,198.375 48.582,199.384 48.743 C 201.295 49.049,201.486 49.012,201.500 48.333 C 201.508 47.953,202.645 39.867,202.823 38.917 C 203.109 37.400,203.176 37.478,201.625 37.519 C 200.869 37.539,199.800 37.651,199.250 37.767 M218.917 37.740 C 216.418 38.538,213.867 40.483,211.468 43.417 C 206.458 49.542,205.387 63.035,209.419 69.226 C 210.524 70.924,211.620 71.892,213.333 72.684 L 214.917 73.417 217.667 73.411 C 224.033 73.397,227.909 70.258,230.220 63.243 C 232.658 55.839,231.939 49.296,227.890 42.048 C 226.064 38.779,221.909 36.784,218.917 37.740 M145.937 46.881 C 147.004 48.046,146.320 50.424,144.794 50.852 C 142.824 51.403,140.870 51.626,140.754 51.312 C 140.582 50.845,140.212 47.079,140.326 46.953 C 140.762 46.473,142.150 46.169,143.721 46.208 L 145.359 46.250 145.937 46.881 M221.533 48.770 C 221.997 49.007,222.833 49.983,222.833 50.287 C 222.833 50.382,223.028 50.884,223.265 51.402 C 225.642 56.596,223.063 64.365,218.951 64.397 C 216.636 64.415,215.871 64.038,215.080 62.488 C 212.134 56.716,216.969 46.438,221.533 48.770 M268.055 49.096 C 266.260 49.758,265.035 51.924,264.678 55.068 C 264.303 58.365,265.254 59.384,266.948 57.501 C 267.438 56.956,268.104 56.477,268.963 56.052 C 271.193 54.948,272.323 53.476,272.329 51.667 C 272.336 49.571,270.220 48.298,268.055 49.096 M120.888 50.549 C 118.804 51.651,118.839 54.539,120.959 56.275 C 121.382 56.622,121.823 56.920,121.939 56.937 C 122.572 57.030,124.061 57.895,124.740 58.564 C 126.165 59.970,126.852 59.766,126.971 57.903 C 127.306 52.630,124.156 48.822,120.888 50.549 M211.333 51.674 C 214.116 52.113,214.263 52.252,213.723 53.928 C 212.185 58.697,213.599 64.281,216.640 65.449 C 220.581 66.962,223.941 64.173,224.907 58.583 C 225.104 57.445,225.121 57.417,225.596 57.432 C 226.114 57.448,230.219 58.014,230.295 58.079 C 230.633 58.369,228.980 63.931,227.995 65.820 C 225.537 70.534,220.570 72.982,215.417 72.017 C 209.577 70.925,206.460 62.124,208.818 53.389 C 209.356 51.394,209.395 51.368,211.333 51.674 M278.083 51.989 C 276.667 52.334,275.149 53.589,273.877 55.469 C 272.118 58.066,272.652 59.112,275.083 57.833 C 275.655 57.533,276.286 57.333,276.666 57.333 C 279.735 57.333,282.429 54.514,281.000 52.797 C 280.300 51.955,279.328 51.686,278.083 51.989 M111.716 53.283 C 110.729 53.475,109.915 55.203,110.388 56.105 C 110.724 56.745,111.913 57.881,112.285 57.917 C 112.449 57.933,112.991 58.071,113.489 58.223 C 113.986 58.375,114.682 58.500,115.035 58.500 C 115.387 58.500,116.275 58.702,117.007 58.950 C 119.029 59.632,119.346 59.052,118.022 57.089 C 117.752 56.691,117.486 56.226,117.428 56.057 C 116.832 54.293,113.886 52.863,111.716 53.283 M252.167 55.458 L 252.917 57.166 253.029 56.458 C 253.091 56.068,253.148 55.361,253.154 54.885 C 253.161 54.409,253.239 53.975,253.327 53.920 C 253.652 53.720,259.049 54.828,259.396 55.167 C 259.480 55.248,259.423 56.900,259.262 59.029 C 259.108 61.076,258.886 64.194,258.768 65.960 C 258.650 67.725,258.522 69.198,258.485 69.233 C 258.289 69.416,250.408 69.614,250.290 69.438 C 250.129 69.200,248.834 65.092,248.260 63.000 C 248.021 62.129,247.326 59.821,246.716 57.872 C 246.035 55.695,245.667 54.267,245.762 54.173 C 245.997 53.941,248.231 53.701,249.917 53.727 L 251.417 53.750 252.167 55.458 M190.500 54.990 C 190.500 55.076,190.380 55.657,190.234 56.281 C 189.455 59.603,190.381 61.794,192.934 62.673 C 195.934 63.705,198.711 63.297,201.598 61.401 C 202.213 60.997,202.775 60.667,202.846 60.667 C 203.169 60.667,204.667 64.719,204.667 65.595 C 204.667 65.813,204.314 66.152,203.604 66.615 C 194.990 72.239,185.744 70.203,184.263 62.357 C 183.996 60.944,183.923 57.673,184.145 57.109 C 184.325 56.650,190.500 54.591,190.500 54.990 M241.674 58.758 C 241.587 60.587,241.465 63.942,241.402 66.213 C 241.338 68.484,241.233 70.376,241.167 70.417 C 241.046 70.491,237.852 70.258,236.556 70.079 C 235.599 69.948,235.641 70.946,236.176 61.139 L 236.382 57.360 237.396 56.990 C 237.954 56.787,239.125 56.297,239.997 55.901 C 240.869 55.506,241.638 55.238,241.707 55.307 C 241.776 55.376,241.761 56.929,241.674 58.758 M140.197 56.772 C 140.749 56.863,140.820 56.934,140.903 57.478 C 141.058 58.496,142.463 68.704,142.551 69.452 C 142.673 70.491,142.478 70.574,138.500 71.163 C 136.129 71.514,136.235 71.560,136.106 70.116 C 136.048 69.456,135.768 66.686,135.485 63.960 L 134.971 59.003 135.330 58.421 C 136.167 57.067,138.075 56.421,140.197 56.772 M172.807 59.214 C 173.174 59.248,173.128 59.349,172.080 60.828 C 170.518 63.032,168.318 66.319,166.501 69.167 C 165.652 70.496,164.937 71.607,164.912 71.637 C 164.741 71.834,161.557 69.799,160.363 68.729 L 159.643 68.083 160.959 66.167 C 161.683 65.112,162.752 63.575,163.336 62.750 C 163.920 61.925,164.718 60.762,165.111 60.167 L 165.824 59.083 169.120 59.131 C 170.933 59.157,172.593 59.194,172.807 59.214 M275.417 59.994 C 271.397 61.085,268.731 63.704,268.541 66.751 C 268.381 69.328,269.357 70.100,270.964 68.667 C 272.318 67.461,272.884 67.328,274.184 67.911 C 277.676 69.478,282.305 66.671,281.492 63.480 C 281.390 63.078,281.266 62.544,281.218 62.293 C 280.871 60.500,277.895 59.321,275.417 59.994 M113.750 61.077 C 113.658 61.117,113.273 61.228,112.894 61.326 C 110.846 61.851,109.386 64.976,110.327 66.820 C 110.777 67.703,112.056 68.943,112.618 69.042 C 112.874 69.087,113.568 69.255,114.161 69.414 C 115.476 69.768,116.406 69.681,117.709 69.082 C 118.894 68.538,119.445 68.665,120.687 69.768 C 122.584 71.453,124.025 69.140,122.822 66.343 C 122.632 65.902,122.461 65.437,122.443 65.311 C 122.168 63.442,115.647 60.266,113.750 61.077 M89.302 66.666 C 87.311 67.739,87.987 70.440,90.267 70.526 C 92.178 70.599,93.053 67.845,91.436 66.845 C 90.609 66.334,90.011 66.284,89.302 66.666 M301.583 66.569 C 299.452 67.516,300.083 70.659,302.377 70.523 C 304.540 70.396,305.082 67.551,303.114 66.657 C 302.290 66.283,302.233 66.280,301.583 66.569 M73.066 79.905 C 71.190 80.722,71.229 83.944,73.127 84.836 C 75.658 86.026,78.165 83.315,76.756 80.911 C 76.085 79.766,74.425 79.313,73.066 79.905 M316.753 79.928 C 314.343 81.185,315.107 84.724,317.871 85.103 C 320.509 85.464,321.946 81.840,319.830 80.164 C 319.094 79.581,317.633 79.469,316.753 79.928 M97.500 82.278 C 95.185 83.066,93.986 85.629,95.016 87.586 C 97.055 91.457,102.333 90.316,102.333 86.004 C 102.333 83.424,99.821 81.488,97.500 82.278 M292.250 82.527 C 288.246 84.604,290.448 90.934,294.793 89.840 C 297.430 89.176,298.656 86.195,297.228 83.918 C 296.264 82.380,293.840 81.703,292.250 82.527 M133.250 85.734 C 130.130 87.161,129.742 91.438,132.567 93.260 C 134.194 94.309,137.262 93.840,138.296 92.384 C 140.907 88.710,137.257 83.901,133.250 85.734 M158.083 85.578 C 155.874 86.150,152.333 88.053,152.333 88.668 C 152.333 89.504,153.016 89.746,153.808 89.188 C 155.067 88.302,157.417 87.351,159.232 86.993 C 161.367 86.573,163.172 88.122,164.872 91.833 C 165.808 93.876,166.777 94.738,168.618 95.163 C 169.979 95.477,171.780 95.000,173.669 93.825 C 176.064 92.337,176.220 92.282,178.333 92.205 C 180.343 92.131,180.667 92.005,180.667 91.293 C 180.667 89.761,175.870 90.408,173.276 92.290 C 171.569 93.528,169.421 93.967,168.083 93.353 C 167.181 92.939,167.035 92.744,165.762 90.250 C 163.568 85.951,161.500 84.692,158.083 85.578 M238.159 85.491 C 236.438 86.013,234.443 88.410,233.212 91.435 C 232.416 93.388,229.210 94.443,227.937 93.171 C 227.843 93.077,227.660 93.000,227.529 93.000 C 227.399 93.000,226.814 92.659,226.229 92.241 C 225.305 91.582,224.303 91.039,223.750 90.899 C 220.926 90.181,219.009 90.439,219.003 91.538 C 218.999 92.092,219.142 92.131,221.417 92.211 C 223.259 92.275,223.535 92.373,225.937 93.814 C 228.447 95.320,230.274 95.618,232.020 94.807 C 233.426 94.154,234.036 93.409,235.138 91.000 C 236.328 88.398,237.951 86.916,239.583 86.942 C 241.099 86.967,244.046 88.007,245.607 89.067 C 246.629 89.762,247.500 89.518,247.270 88.602 C 247.141 88.090,243.883 86.218,242.583 85.909 C 242.492 85.887,241.956 85.749,241.393 85.602 C 240.321 85.321,238.881 85.272,238.159 85.491 M256.125 85.571 C 251.661 87.164,252.684 93.767,257.391 93.742 C 260.247 93.726,261.833 92.302,261.833 89.753 C 261.833 86.738,258.892 84.584,256.125 85.571 M112.941 94.551 C 111.531 95.357,111.796 98.233,113.292 98.348 C 114.571 98.446,115.018 98.308,115.576 97.645 C 117.007 95.944,114.878 93.444,112.941 94.551 M277.177 94.801 C 275.857 95.903,276.477 98.080,278.181 98.327 C 279.525 98.522,280.500 97.721,280.500 96.424 C 280.500 94.585,278.567 93.641,277.177 94.801 M151.870 97.831 C 149.343 98.905,150.212 103.000,152.967 103.000 C 156.396 103.000,156.723 97.877,153.304 97.719 C 152.724 97.692,152.079 97.743,151.870 97.831 M238.083 97.927 C 235.844 99.059,236.702 102.754,239.253 102.965 C 242.119 103.203,243.340 99.157,240.770 97.937 C 240.057 97.599,238.742 97.594,238.083 97.927 " stroke="none" fill="#418dbd" fill-rule="evenodd"></path><path id="path3" d="M183.748 85.961 C 183.638 86.041,183.600 87.858,183.639 91.167 L 183.699 96.250 187.343 96.250 L 190.988 96.250 191.280 94.958 L 191.571 93.667 192.438 93.667 L 193.304 93.667 193.432 94.375 C 193.614 95.378,193.613 95.375,193.641 95.815 C 193.666 96.199,193.700 96.209,194.614 96.101 C 195.917 95.948,195.994 95.859,195.744 94.792 C 195.130 92.171,194.628 89.895,194.331 88.380 C 193.795 85.655,193.911 85.798,192.291 85.862 L 190.917 85.917 190.623 87.083 C 190.462 87.725,190.215 88.850,190.074 89.583 C 189.933 90.317,189.712 91.404,189.582 92.000 C 189.453 92.596,189.298 93.415,189.238 93.821 L 189.128 94.558 188.919 94.062 L 188.710 93.565 187.254 93.631 L 185.798 93.698 185.857 89.766 L 185.917 85.833 184.917 85.836 C 184.367 85.837,183.841 85.894,183.748 85.961 M203.011 86.147 C 202.915 86.326,202.762 86.995,202.671 87.633 C 202.581 88.272,202.435 88.983,202.347 89.214 C 202.259 89.446,202.148 89.961,202.100 90.359 C 202.053 90.757,201.786 92.036,201.507 93.199 C 200.800 96.148,200.793 96.096,201.928 96.230 C 203.087 96.366,203.068 96.380,203.317 95.216 C 203.667 93.582,203.601 93.667,204.516 93.667 C 205.033 93.667,205.368 93.745,205.408 93.875 C 205.443 93.990,205.572 94.532,205.694 95.080 L 205.917 96.076 207.825 96.119 C 210.114 96.171,209.990 96.296,210.012 93.917 L 210.030 92.083 210.261 92.917 C 210.388 93.375,210.533 94.081,210.583 94.487 C 210.788 96.145,210.770 96.128,212.282 96.035 C 213.245 95.976,213.319 95.942,213.401 95.527 C 213.449 95.283,213.622 94.371,213.786 93.500 L 214.083 91.917 214.130 94.208 L 214.176 96.500 215.296 96.500 L 216.417 96.500 216.417 91.495 L 216.417 86.489 214.756 86.536 L 213.095 86.583 212.608 89.042 C 212.057 91.828,211.970 91.944,211.614 90.375 C 210.465 85.298,210.724 85.723,208.917 85.956 L 207.917 86.085 207.951 90.501 C 207.983 94.540,207.967 94.838,207.757 94.000 C 207.387 92.520,206.473 88.514,206.395 88.029 C 206.356 87.784,206.227 87.208,206.110 86.750 L 205.896 85.917 204.541 85.868 C 203.337 85.826,203.166 85.857,203.011 86.147 M195.701 87.288 L 195.750 88.417 196.564 88.468 L 197.378 88.520 197.299 92.350 L 197.220 96.181 198.318 96.132 L 199.417 96.083 199.461 92.292 L 199.506 88.500 200.344 88.500 L 201.182 88.500 201.133 87.375 L 201.083 86.250 198.367 86.204 L 195.651 86.158 195.701 87.288 M205.333 91.282 C 205.333 91.310,204.953 91.333,204.489 91.333 C 203.732 91.333,203.655 91.300,203.746 91.013 C 203.802 90.837,203.875 90.549,203.909 90.374 C 203.943 90.198,204.065 89.738,204.181 89.351 L 204.392 88.648 204.862 89.940 C 205.121 90.650,205.333 91.254,205.333 91.282 M193.000 91.199 C 193.000 91.273,192.657 91.333,192.239 91.333 C 191.593 91.333,191.490 91.289,191.562 91.042 C 191.609 90.881,191.730 90.412,191.832 90.000 C 192.150 88.709,192.188 88.704,192.602 89.907 C 192.821 90.544,193.000 91.125,193.000 91.199 " stroke="none" fill="#a4542c" fill-rule="evenodd"></path><path id="path4" d="M209.250 52.108 C 208.923 52.893,208.495 54.543,208.517 54.941 C 208.526 55.111,208.601 54.950,208.683 54.583 C 209.189 52.326,209.503 51.688,210.143 51.620 L 210.750 51.556 210.127 51.528 C 209.558 51.502,209.483 51.552,209.250 52.108 M211.583 51.844 C 213.144 52.158,214.031 52.513,213.927 52.783 C 213.875 52.919,213.794 53.230,213.747 53.474 C 213.695 53.742,213.760 53.663,213.912 53.272 C 214.265 52.366,213.632 51.953,211.583 51.756 L 210.750 51.676 211.583 51.844 M248.750 53.772 C 249.928 53.896,251.463 53.907,251.391 53.792 C 251.349 53.723,250.624 53.679,249.782 53.693 C 248.939 53.708,248.475 53.744,248.750 53.772 M247.125 53.951 C 247.331 53.991,247.669 53.991,247.875 53.951 C 248.081 53.911,247.912 53.879,247.500 53.879 C 247.088 53.879,246.919 53.911,247.125 53.951 M253.232 54.069 C 253.183 54.199,253.174 54.518,253.213 54.778 C 253.273 55.182,253.287 55.162,253.308 54.637 C 253.328 54.143,253.407 54.009,253.708 53.951 L 254.083 53.879 253.703 53.856 C 253.494 53.844,253.282 53.939,253.232 54.069 M245.769 54.137 C 245.722 54.212,245.905 54.241,246.175 54.201 C 246.446 54.161,246.667 54.100,246.667 54.064 C 246.667 53.937,245.851 54.003,245.769 54.137 M251.550 54.375 C 252.854 57.540,253.190 58.012,253.143 56.615 L 253.119 55.917 253.018 56.563 L 252.917 57.209 252.275 55.688 C 251.922 54.851,251.595 54.167,251.549 54.167 C 251.502 54.167,251.503 54.260,251.550 54.375 M256.500 54.500 C 256.729 54.573,257.067 54.633,257.250 54.633 C 257.514 54.633,257.497 54.606,257.167 54.500 C 256.938 54.427,256.600 54.367,256.417 54.367 C 256.153 54.367,256.170 54.394,256.500 54.500 M245.726 54.747 C 245.778 54.884,246.137 56.008,246.523 57.246 C 246.909 58.484,247.256 59.467,247.293 59.430 C 247.384 59.338,245.846 54.500,245.726 54.500 C 245.674 54.500,245.674 54.611,245.726 54.747 M258.451 54.947 L 259.318 55.211 259.377 56.147 L 259.437 57.083 259.468 56.121 C 259.503 55.061,259.432 54.988,258.167 54.780 C 257.804 54.720,257.912 54.784,258.451 54.947 M189.750 55.014 C 189.470 55.147,189.488 55.158,189.863 55.086 C 190.194 55.022,190.329 55.075,190.385 55.292 C 190.442 55.511,190.466 55.491,190.481 55.208 C 190.501 54.811,190.295 54.757,189.750 55.014 M241.083 55.416 C 240.499 55.677,240.614 55.742,241.239 55.504 C 241.659 55.345,241.667 55.356,241.696 56.129 L 241.725 56.917 241.790 56.186 C 241.870 55.286,241.726 55.130,241.083 55.416 M237.792 56.806 L 236.333 57.401 236.361 58.409 L 236.389 59.417 236.486 58.451 L 236.583 57.486 237.967 56.929 C 239.235 56.419,239.788 56.133,239.403 56.189 C 239.319 56.201,238.594 56.478,237.792 56.806 M184.542 56.672 C 183.965 56.904,184.098 57.006,184.708 56.800 C 185.006 56.699,185.281 56.591,185.319 56.559 C 185.455 56.444,184.911 56.523,184.542 56.672 M213.064 58.417 C 213.064 59.517,213.091 59.945,213.124 59.368 C 213.156 58.792,213.156 57.892,213.123 57.368 C 213.090 56.845,213.063 57.317,213.064 58.417 M138.628 56.787 C 138.928 56.825,139.378 56.824,139.628 56.786 C 139.878 56.748,139.633 56.717,139.083 56.718 C 138.533 56.719,138.328 56.750,138.628 56.787 M208.214 57.417 C 208.216 57.875,208.248 58.043,208.286 57.789 C 208.325 57.536,208.324 57.161,208.284 56.956 C 208.244 56.751,208.213 56.958,208.214 57.417 M136.651 57.221 C 135.308 57.930,134.945 58.683,135.146 60.347 L 135.316 61.750 135.236 60.361 C 135.125 58.416,135.652 57.618,137.413 57.066 C 137.806 56.942,137.939 56.851,137.735 56.844 C 137.543 56.838,137.055 57.008,136.651 57.221 M241.416 60.783 C 241.349 62.873,241.247 65.855,241.189 67.410 L 241.083 70.236 240.667 70.351 L 240.250 70.467 240.714 70.483 C 240.969 70.493,241.206 70.406,241.242 70.292 C 241.345 69.964,241.709 57.153,241.619 57.063 C 241.574 57.018,241.483 58.692,241.416 60.783 M184.048 58.083 C 184.049 58.542,184.081 58.709,184.120 58.456 C 184.158 58.203,184.157 57.828,184.117 57.623 C 184.078 57.418,184.046 57.625,184.048 58.083 M189.888 58.417 C 189.889 59.058,189.919 59.300,189.955 58.955 C 189.991 58.609,189.990 58.084,189.954 57.788 C 189.917 57.492,189.887 57.775,189.888 58.417 M225.065 57.571 C 225.015 57.702,225.007 57.983,225.047 58.196 C 225.102 58.483,225.127 58.438,225.144 58.026 L 225.167 57.469 226.042 57.559 C 226.665 57.622,226.773 57.609,226.417 57.511 C 225.627 57.293,225.164 57.314,225.065 57.571 M259.214 58.250 C 259.216 58.708,259.248 58.876,259.286 58.623 C 259.325 58.369,259.324 57.994,259.284 57.789 C 259.244 57.584,259.213 57.792,259.214 58.250 M227.583 57.834 C 228.257 57.982,229.448 58.053,229.319 57.937 C 229.281 57.903,228.725 57.832,228.083 57.781 C 227.187 57.709,227.071 57.721,227.583 57.834 M165.769 59.137 C 165.722 59.212,165.905 59.241,166.175 59.201 C 166.446 59.161,166.667 59.100,166.667 59.064 C 166.667 58.937,165.851 59.003,165.769 59.137 M168.466 59.291 C 169.227 59.322,170.427 59.322,171.133 59.290 C 171.839 59.259,171.217 59.234,169.750 59.234 C 168.283 59.234,167.706 59.260,168.466 59.291 M172.018 60.667 C 171.447 61.492,171.017 62.167,171.062 62.167 C 171.107 62.167,171.549 61.585,172.045 60.875 C 173.041 59.447,173.218 59.167,173.121 59.167 C 173.085 59.167,172.589 59.842,172.018 60.667 M165.397 59.708 C 164.823 60.682,164.786 60.765,165.078 60.417 C 165.416 60.013,165.708 59.500,165.599 59.500 C 165.555 59.500,165.464 59.594,165.397 59.708 M224.595 59.929 C 224.534 60.173,224.516 60.405,224.555 60.444 C 224.594 60.483,224.677 60.316,224.738 60.071 C 224.799 59.827,224.817 59.595,224.778 59.556 C 224.739 59.517,224.657 59.684,224.595 59.929 M259.050 60.500 C 259.050 61.004,259.081 61.210,259.119 60.958 C 259.158 60.706,259.158 60.294,259.119 60.042 C 259.081 59.790,259.050 59.996,259.050 60.500 M236.129 61.917 C 236.062 63.108,235.972 65.246,235.930 66.667 C 235.868 68.756,235.899 68.501,236.092 65.333 C 236.224 63.179,236.314 61.042,236.291 60.583 C 236.268 60.125,236.195 60.725,236.129 61.917 M141.205 60.500 C 141.205 60.821,141.240 60.952,141.282 60.792 C 141.323 60.631,141.323 60.369,141.282 60.208 C 141.240 60.048,141.205 60.179,141.205 60.500 M184.045 60.667 C 184.045 61.079,184.078 61.248,184.118 61.042 C 184.157 60.835,184.157 60.498,184.118 60.292 C 184.078 60.085,184.045 60.254,184.045 60.667 M247.523 60.333 C 247.523 60.471,247.588 60.733,247.667 60.917 C 247.757 61.127,247.810 61.158,247.810 61.000 C 247.810 60.862,247.745 60.600,247.667 60.417 C 247.576 60.207,247.523 60.176,247.523 60.333 M190.167 60.442 C 190.167 61.398,192.805 63.197,194.151 63.159 C 194.297 63.155,193.892 62.982,193.250 62.774 C 191.749 62.287,191.222 61.932,190.640 61.014 C 190.379 60.604,190.167 60.347,190.167 60.442 M229.604 61.021 C 229.465 61.716,229.600 61.850,229.750 61.167 C 229.813 60.879,229.830 60.608,229.788 60.566 C 229.745 60.523,229.663 60.728,229.604 61.021 M164.126 61.625 C 163.229 62.875,162.759 63.605,163.030 63.333 C 163.361 62.999,164.871 60.833,164.773 60.833 C 164.730 60.833,164.439 61.190,164.126 61.625 M201.106 61.704 C 200.660 61.987,199.685 62.430,198.939 62.690 C 198.194 62.950,197.713 63.163,197.871 63.164 C 198.562 63.170,201.651 61.763,201.926 61.318 C 202.056 61.107,202.019 61.125,201.106 61.704 M208.209 61.917 C 208.211 62.283,208.245 62.414,208.285 62.206 C 208.324 61.999,208.323 61.699,208.281 61.540 C 208.239 61.380,208.207 61.550,208.209 61.917 M247.857 61.500 C 247.857 61.637,247.921 61.900,248.000 62.083 C 248.090 62.293,248.143 62.324,248.143 62.167 C 248.143 62.029,248.079 61.767,248.000 61.583 C 247.910 61.373,247.857 61.342,247.857 61.500 M135.381 62.583 C 135.382 63.042,135.415 63.209,135.453 62.956 C 135.491 62.703,135.490 62.328,135.451 62.123 C 135.411 61.918,135.380 62.125,135.381 62.583 M258.887 62.833 C 258.887 63.429,258.917 63.673,258.954 63.375 C 258.991 63.077,258.991 62.590,258.954 62.292 C 258.917 61.994,258.887 62.237,258.887 62.833 M203.503 62.042 C 203.505 62.065,203.730 62.792,204.003 63.658 C 204.623 65.622,204.621 65.710,203.958 66.251 C 203.425 66.687,203.807 66.557,204.375 66.109 C 204.773 65.797,204.746 65.492,204.161 63.618 C 203.759 62.334,203.476 61.654,203.503 62.042 M169.963 63.624 C 168.824 65.295,168.487 65.833,168.582 65.833 C 168.624 65.833,169.188 65.046,169.833 64.083 C 170.479 63.121,170.971 62.333,170.925 62.333 C 170.880 62.333,170.447 62.914,169.963 63.624 M184.432 63.167 C 184.761 65.040,186.725 67.601,188.537 68.518 C 189.874 69.194,189.975 69.114,188.671 68.411 C 186.790 67.397,185.496 65.853,184.732 63.709 C 184.511 63.090,184.376 62.846,184.432 63.167 M223.102 63.458 C 222.744 64.142,221.845 64.938,221.000 65.320 C 220.588 65.507,220.347 65.661,220.467 65.663 C 221.123 65.674,222.796 64.357,223.268 63.458 C 223.400 63.206,223.471 63.000,223.425 63.000 C 223.379 63.000,223.234 63.206,223.102 63.458 M228.852 63.519 C 228.749 63.813,228.694 64.083,228.730 64.119 C 228.766 64.155,228.879 63.943,228.981 63.648 C 229.084 63.354,229.139 63.083,229.103 63.048 C 229.068 63.012,228.955 63.224,228.852 63.519 M214.252 63.500 C 214.979 64.765,216.540 65.852,217.574 65.815 C 218.019 65.799,217.995 65.779,217.388 65.659 C 216.356 65.455,215.799 65.112,214.909 64.132 C 214.468 63.647,214.173 63.362,214.252 63.500 M135.542 64.250 C 135.544 64.617,135.578 64.747,135.618 64.540 C 135.658 64.332,135.656 64.032,135.615 63.873 C 135.573 63.714,135.540 63.883,135.542 64.250 M248.609 64.161 C 248.718 64.793,249.137 66.017,249.153 65.750 C 249.158 65.658,249.015 65.133,248.835 64.583 C 248.655 64.033,248.553 63.843,248.609 64.161 M258.720 65.167 C 258.720 65.762,258.750 66.006,258.787 65.708 C 258.824 65.410,258.824 64.923,258.787 64.625 C 258.750 64.327,258.720 64.571,258.720 65.167 M228.153 65.202 C 227.473 66.665,226.507 68.032,225.353 69.167 C 224.561 69.945,224.461 70.081,225.000 69.650 C 226.312 68.601,228.973 64.751,228.627 64.404 C 228.588 64.366,228.375 64.725,228.153 65.202 M208.768 65.000 C 208.825 65.321,208.939 65.696,209.021 65.833 C 209.199 66.129,209.028 65.265,208.808 64.750 C 208.711 64.525,208.699 64.606,208.768 65.000 M161.000 66.083 C 160.536 66.771,160.194 67.333,160.240 67.333 C 160.286 67.333,160.703 66.771,161.167 66.083 C 161.631 65.396,161.973 64.833,161.927 64.833 C 161.881 64.833,161.464 65.396,161.000 66.083 M135.705 66.000 C 135.705 66.321,135.740 66.452,135.782 66.292 C 135.823 66.131,135.823 65.869,135.782 65.708 C 135.740 65.548,135.705 65.679,135.705 66.000 M142.027 66.167 C 142.021 66.396,142.116 67.371,142.239 68.333 C 142.505 70.416,142.607 70.267,140.653 70.658 C 139.790 70.831,139.247 70.978,139.447 70.986 C 140.060 71.010,142.238 70.500,142.441 70.285 C 142.585 70.133,142.574 69.609,142.399 68.167 C 142.142 66.058,142.045 65.535,142.027 66.167 M167.488 67.375 C 167.005 68.131,166.502 68.919,166.369 69.125 C 166.237 69.331,166.167 69.500,166.214 69.500 C 166.261 69.500,166.686 68.892,167.157 68.150 C 167.628 67.407,168.132 66.620,168.276 66.400 C 168.420 66.180,168.499 66.000,168.452 66.000 C 168.404 66.000,167.971 66.619,167.488 67.375 M249.192 66.167 C 249.192 66.304,249.293 66.679,249.417 67.000 C 249.540 67.321,249.641 67.471,249.641 67.333 C 249.641 67.196,249.540 66.821,249.417 66.500 C 249.293 66.179,249.192 66.029,249.192 66.167 M209.167 66.228 C 209.167 66.426,209.645 67.500,209.733 67.500 C 209.779 67.500,209.700 67.219,209.557 66.875 C 209.290 66.230,209.167 66.025,209.167 66.228 M258.553 67.833 C 258.553 68.429,258.584 68.673,258.621 68.375 C 258.658 68.077,258.658 67.590,258.621 67.292 C 258.584 66.994,258.553 67.237,258.553 67.833 M135.872 67.500 C 135.872 67.821,135.906 67.952,135.948 67.792 C 135.990 67.631,135.990 67.369,135.948 67.208 C 135.906 67.048,135.872 67.179,135.872 67.500 M202.292 67.262 C 201.669 67.600,201.707 67.741,202.333 67.417 C 202.608 67.274,202.833 67.123,202.833 67.079 C 202.833 66.972,202.815 66.978,202.292 67.262 M200.333 68.250 C 199.737 68.562,199.325 68.817,199.417 68.817 C 199.508 68.817,200.071 68.562,200.667 68.250 C 201.262 67.938,201.675 67.683,201.583 67.683 C 201.492 67.683,200.929 67.938,200.333 68.250 M160.333 68.676 C 161.114 69.404,163.022 70.748,163.958 71.230 C 164.934 71.732,164.528 71.402,163.086 70.521 C 162.308 70.046,161.202 69.279,160.628 68.817 C 159.740 68.103,159.696 68.082,160.333 68.676 M136.042 69.250 C 136.044 69.617,136.078 69.747,136.118 69.540 C 136.158 69.332,136.156 69.032,136.115 68.873 C 136.073 68.714,136.040 68.883,136.042 69.250 M250.006 68.700 C 249.981 69.195,250.426 69.665,250.902 69.647 L 251.417 69.627 250.944 69.522 C 250.684 69.464,250.368 69.229,250.242 69.000 C 250.115 68.771,250.009 68.636,250.006 68.700 M211.334 69.730 C 211.916 70.376,213.731 71.667,214.058 71.667 C 214.153 71.667,213.785 71.400,213.240 71.073 C 212.696 70.747,211.913 70.165,211.501 69.781 L 210.752 69.083 211.334 69.730 M253.629 69.456 C 254.021 69.491,254.621 69.490,254.963 69.454 C 255.304 69.419,254.983 69.390,254.250 69.390 C 253.517 69.391,253.237 69.420,253.629 69.456 M193.297 69.790 C 193.782 69.824,194.532 69.823,194.964 69.789 C 195.396 69.755,195.000 69.727,194.083 69.728 C 193.167 69.728,192.813 69.756,193.297 69.790 M236.794 70.118 C 237.001 70.158,237.301 70.156,237.460 70.115 C 237.620 70.073,237.450 70.040,237.083 70.042 C 236.717 70.044,236.586 70.078,236.794 70.118 M136.189 70.708 C 136.175 71.102,136.244 71.339,136.375 71.349 C 136.828 71.385,137.784 71.297,138.417 71.162 C 138.976 71.044,137.539 71.095,136.589 71.227 C 136.500 71.240,136.379 70.987,136.319 70.667 L 136.211 70.083 136.189 70.708 M165.202 70.917 C 164.911 71.329,164.729 71.667,164.797 71.667 C 164.864 71.667,165.024 71.498,165.152 71.292 C 165.280 71.085,165.494 70.748,165.628 70.542 C 166.069 69.863,165.742 70.151,165.202 70.917 M222.833 70.866 C 222.146 71.229,221.771 71.473,222.000 71.408 C 222.519 71.262,223.476 70.776,223.917 70.435 C 224.402 70.060,224.228 70.129,222.833 70.866 M238.542 70.286 C 238.794 70.324,239.206 70.324,239.458 70.286 C 239.710 70.248,239.504 70.217,239.000 70.217 C 238.496 70.217,238.290 70.248,238.542 70.286 M216.625 72.123 C 217.106 72.157,217.894 72.157,218.375 72.123 C 218.856 72.089,218.463 72.062,217.500 72.062 C 216.537 72.062,216.144 72.089,216.625 72.123 " stroke="none" fill="#89a58e" fill-rule="evenodd"></path></g></svg>