<svg id="svg" version="1.1" xmlns="http://www.w3.org/2000/svg" xmlns:xlink="http://www.w3.org/1999/xlink" width="400" height="133.33333333333334" viewBox="0, 0, 400,133.33333333333334"><g id="svgg"><path id="path0" d="M209.278 52.366 C 208.120 55.398,207.873 60.977,208.745 64.413 C 210.017 69.427,212.699 71.858,217.083 71.972 C 223.874 72.149,228.041 68.330,229.768 60.346 C 230.265 58.053,230.252 58.000,229.187 58.000 C 228.437 58.000,226.231 57.649,225.475 57.409 C 225.236 57.333,225.166 57.398,225.165 57.697 C 225.157 60.659,222.776 64.867,220.711 65.571 C 215.137 67.470,211.552 61.762,213.549 54.167 C 213.778 53.296,213.917 52.533,213.858 52.471 C 213.673 52.279,211.696 51.823,210.604 51.722 L 209.562 51.624 209.278 52.366 M246.767 54.015 C 245.585 54.190,245.612 54.169,245.843 54.769 C 246.198 55.689,247.513 59.933,248.265 62.583 C 248.681 64.050,249.325 66.208,249.696 67.378 L 250.371 69.506 254.310 69.399 C 256.477 69.339,258.301 69.244,258.363 69.187 C 258.426 69.130,258.561 67.621,258.664 65.833 C 258.768 64.046,258.988 60.971,259.154 59.000 C 259.319 57.029,259.405 55.360,259.343 55.290 C 259.071 54.984,253.615 53.830,253.410 54.035 C 253.365 54.080,253.280 54.843,253.222 55.731 C 253.085 57.816,253.041 57.814,252.127 55.699 L 251.357 53.917 249.554 53.893 C 248.562 53.880,247.308 53.935,246.767 54.015 M187.083 55.974 L 184.250 56.917 184.129 58.083 C 183.302 66.048,188.731 70.896,196.833 69.429 C 199.709 68.908,204.486 66.459,204.496 65.500 C 204.502 64.914,203.368 61.579,203.014 61.143 L 202.721 60.780 201.985 61.285 C 198.713 63.530,195.031 63.953,192.026 62.430 C 190.170 61.489,189.431 59.270,190.080 56.583 C 190.538 54.687,190.795 54.739,187.083 55.974 M239.625 56.168 C 238.639 56.618,237.539 57.075,237.179 57.183 L 236.524 57.379 236.433 58.564 C 236.328 59.928,235.930 68.253,235.922 69.249 L 235.917 69.914 236.760 70.018 C 237.224 70.076,238.405 70.177,239.385 70.244 L 241.167 70.365 241.171 68.974 C 241.176 67.166,241.457 59.428,241.602 57.125 C 241.666 56.100,241.650 55.337,241.565 55.342 C 241.484 55.346,240.610 55.718,239.625 56.168 M137.413 57.066 C 135.432 57.687,135.080 58.372,135.327 61.127 C 135.533 63.413,136.355 71.238,136.393 71.269 C 136.539 71.387,142.261 70.441,142.452 70.267 C 142.505 70.218,141.730 64.002,141.443 62.167 C 141.306 61.296,141.103 59.783,140.991 58.805 C 140.811 57.224,140.749 57.017,140.436 56.932 C 139.831 56.770,138.114 56.846,137.413 57.066 M164.681 60.999 C 164.026 61.962,162.653 63.944,161.630 65.403 L 159.771 68.056 160.497 68.701 C 161.612 69.690,164.735 71.672,164.889 71.488 C 164.922 71.449,165.683 70.254,166.580 68.833 C 167.477 67.412,169.157 64.880,170.314 63.206 C 171.470 61.532,172.544 59.957,172.699 59.706 L 172.981 59.250 169.426 59.249 L 165.871 59.248 164.681 60.999 " stroke="none" fill="#f3c33c" fill-rule="evenodd"></path><path id="path1" d="M165.109 38.805 C 164.957 38.972,164.833 39.206,164.833 39.323 C 164.833 39.878,169.098 48.072,170.220 49.674 L 170.484 50.051 170.679 49.622 C 170.844 49.261,170.822 49.118,170.545 48.722 C 170.270 48.329,169.681 47.248,168.560 45.083 C 168.187 44.362,167.504 42.863,166.152 39.792 C 165.530 38.380,165.511 38.361,165.109 38.805 M247.167 39.479 C 247.167 40.279,250.844 50.804,251.920 53.083 L 252.471 54.250 252.503 53.333 C 252.555 51.842,252.503 51.468,252.093 50.417 C 251.305 48.396,250.833 47.070,250.833 46.873 C 250.833 46.761,250.657 46.201,250.441 45.627 C 250.226 45.053,249.839 43.908,249.582 43.083 C 248.383 39.238,248.349 39.167,247.728 39.167 C 247.291 39.167,247.167 39.236,247.167 39.479 M262.000 39.388 C 262.000 39.509,261.924 40.391,261.832 41.346 C 261.739 42.302,261.518 45.108,261.340 47.583 C 260.620 57.580,259.650 69.892,259.574 70.016 C 259.540 70.071,257.540 70.169,255.131 70.234 C 252.721 70.300,250.696 70.406,250.631 70.471 C 250.511 70.589,250.921 71.978,251.144 72.207 C 251.211 72.276,253.605 72.242,256.466 72.133 L 261.667 71.935 261.660 70.843 C 261.657 70.242,261.844 67.425,262.075 64.583 C 262.307 61.742,262.686 56.867,262.919 53.750 C 263.151 50.633,263.491 46.246,263.674 44.000 C 264.116 38.585,264.197 39.167,263.000 39.167 C 262.280 39.167,262.000 39.229,262.000 39.388 M202.606 40.042 C 202.552 40.340,202.388 41.521,202.242 42.667 C 201.899 45.351,201.364 48.858,201.285 48.937 C 201.251 48.971,200.354 48.875,199.291 48.724 C 196.253 48.292,195.057 48.851,193.286 51.532 C 190.706 55.438,190.219 59.479,192.152 60.958 C 193.050 61.646,193.178 61.639,192.955 60.913 C 192.781 60.344,192.837 59.775,193.317 57.250 C 193.490 56.341,194.649 54.001,195.416 53.012 C 197.157 50.769,198.502 50.158,200.755 50.589 C 202.789 50.979,203.334 50.933,203.332 50.375 C 203.331 50.123,203.515 48.717,203.741 47.250 C 203.968 45.783,204.275 43.608,204.425 42.417 C 204.575 41.225,204.736 40.081,204.783 39.875 C 204.866 39.516,204.824 39.500,203.787 39.500 L 202.704 39.500 202.606 40.042 M153.172 40.364 C 153.175 40.484,153.289 40.732,153.426 40.913 C 154.672 42.561,155.051 47.497,154.130 50.083 C 152.310 55.194,147.885 58.541,143.254 58.307 L 141.979 58.242 142.081 59.080 C 142.308 60.951,143.027 66.224,143.343 68.333 C 143.528 69.571,143.696 70.731,143.715 70.910 C 143.753 71.263,142.973 71.459,138.833 72.141 L 137.083 72.429 137.129 73.414 C 137.155 73.955,137.211 74.433,137.254 74.476 C 137.366 74.588,139.903 74.221,142.333 73.743 C 143.479 73.517,144.604 73.331,144.833 73.330 C 145.710 73.326,145.729 73.233,145.358 70.813 C 144.944 68.108,144.220 62.850,144.041 61.250 L 143.911 60.083 146.008 60.072 C 153.980 60.029,159.205 50.095,155.242 42.516 C 154.807 41.684,153.163 39.974,153.172 40.364 M228.149 42.542 C 234.444 52.567,231.507 68.862,222.740 72.552 C 219.756 73.808,215.812 73.827,213.220 72.596 L 212.003 72.018 212.361 72.502 C 215.324 76.509,223.694 76.336,228.048 72.179 C 233.079 67.375,235.093 55.206,231.985 48.384 C 231.810 48.000,231.667 47.613,231.667 47.524 C 231.667 47.308,230.860 45.641,230.187 44.464 C 229.695 43.606,227.857 41.500,227.599 41.500 C 227.542 41.500,227.789 41.969,228.149 42.542 M184.562 44.375 C 183.799 45.600,180.264 50.855,178.695 53.098 C 176.643 56.032,173.920 59.906,171.917 62.741 C 171.000 64.038,169.096 66.840,167.685 68.966 C 166.274 71.093,165.010 72.833,164.876 72.833 C 164.606 72.833,163.297 72.135,161.179 70.861 C 160.407 70.397,159.713 70.055,159.637 70.101 C 159.309 70.304,159.560 70.669,160.375 71.176 C 160.856 71.475,161.430 71.839,161.651 71.985 C 162.536 72.571,163.271 73.018,163.667 73.209 C 163.896 73.319,164.121 73.458,164.167 73.516 C 164.212 73.574,164.839 73.912,165.558 74.267 L 166.867 74.912 167.142 74.557 C 167.293 74.363,167.567 73.955,167.750 73.651 C 168.207 72.895,168.134 73.006,170.750 69.109 C 172.033 67.198,173.158 65.512,173.250 65.363 C 173.342 65.213,173.501 65.014,173.604 64.921 C 173.707 64.827,174.120 64.262,174.523 63.667 C 174.926 63.071,175.573 62.155,175.961 61.632 C 176.349 61.109,176.667 60.616,176.667 60.536 C 176.667 60.457,176.854 60.215,177.083 60.000 C 177.313 59.785,177.500 59.509,177.500 59.388 C 177.500 59.266,177.561 59.167,177.636 59.167 C 177.711 59.167,177.940 58.885,178.145 58.542 C 178.350 58.198,178.740 57.617,179.011 57.250 C 179.282 56.883,179.934 55.954,180.460 55.185 C 180.986 54.416,181.736 53.329,182.126 52.768 C 182.883 51.681,183.962 50.091,184.245 49.646 C 184.339 49.497,184.714 48.935,185.078 48.396 C 185.895 47.187,185.957 47.090,186.617 45.989 C 187.221 44.981,187.209 44.944,186.051 44.162 C 185.112 43.529,185.088 43.532,184.562 44.375 M141.370 46.412 C 140.187 46.781,140.206 46.728,140.451 49.034 C 140.727 51.638,140.658 51.500,141.680 51.500 C 142.483 51.500,142.531 51.477,142.447 51.125 C 142.173 49.971,142.144 48.893,142.382 48.696 C 142.776 48.369,144.433 48.000,145.508 48.000 C 146.590 48.000,146.664 47.912,146.216 47.153 C 145.651 46.197,143.239 45.828,141.370 46.412 M219.249 48.631 C 214.635 50.237,212.409 59.980,215.841 63.541 C 216.842 64.579,216.938 64.521,216.494 63.150 C 215.544 60.215,216.240 56.061,218.208 52.917 C 218.564 52.348,220.140 50.833,220.376 50.833 C 220.499 50.833,220.688 50.746,220.795 50.639 C 220.902 50.532,221.404 50.438,221.910 50.430 C 222.964 50.415,223.040 50.271,222.397 49.507 C 221.549 48.499,220.481 48.202,219.249 48.631 M242.838 51.083 C 242.829 53.849,242.405 66.714,242.229 69.561 L 242.117 71.372 239.100 71.311 L 236.083 71.250 236.033 72.019 L 235.984 72.789 238.450 73.006 C 239.807 73.126,241.629 73.230,242.500 73.237 L 244.083 73.250 244.183 70.083 C 244.237 68.342,244.382 64.029,244.505 60.499 L 244.728 54.082 244.010 51.749 C 242.902 48.150,242.848 48.120,242.838 51.083 M272.293 52.069 C 272.157 53.766,271.123 54.975,268.855 56.090 C 267.057 56.973,266.443 57.735,266.589 58.902 C 266.780 60.436,267.754 60.533,269.094 59.151 C 269.455 58.778,270.237 58.245,270.833 57.965 C 271.967 57.434,272.943 56.691,273.286 56.099 C 273.397 55.907,273.491 55.824,273.494 55.914 C 273.526 56.790,274.167 54.622,274.167 53.639 L 274.167 52.443 273.414 51.721 C 272.439 50.788,272.395 50.802,272.293 52.069 M126.062 52.755 C 126.706 54.433,126.917 55.529,126.917 57.202 C 126.917 59.836,126.382 60.153,124.690 58.522 C 123.896 57.758,122.952 57.197,122.000 56.924 C 121.346 56.738,123.265 58.580,124.083 58.925 C 125.326 59.450,125.515 59.564,126.119 60.157 C 127.373 61.388,128.033 61.608,128.599 60.982 C 129.256 60.256,128.799 56.203,127.859 54.417 C 127.264 53.287,125.717 51.856,126.062 52.755 M281.442 53.965 C 281.404 54.030,281.321 54.322,281.259 54.614 C 281.001 55.816,279.247 56.924,277.183 57.190 C 275.679 57.384,275.452 57.497,275.105 58.228 C 274.324 59.874,275.084 60.470,276.833 59.583 C 277.446 59.273,277.918 59.167,278.682 59.167 C 281.797 59.167,284.323 56.397,282.786 54.667 C 282.380 54.209,281.552 53.777,281.442 53.965 M117.500 56.243 C 117.500 56.289,117.759 56.731,118.075 57.225 C 119.303 59.145,119.022 59.589,116.993 58.934 C 116.252 58.695,115.332 58.498,114.948 58.495 C 114.564 58.492,113.838 58.347,113.335 58.173 C 112.274 57.807,112.288 57.804,112.551 58.331 C 113.058 59.347,114.529 60.073,116.613 60.335 C 117.179 60.406,118.133 60.628,118.733 60.828 C 120.596 61.448,121.117 60.996,120.302 59.466 C 119.603 58.155,117.500 55.735,117.500 56.243 M204.504 61.245 C 204.341 61.442,204.451 61.931,205.074 63.766 C 205.499 65.018,205.824 66.060,205.798 66.081 C 205.057 66.664,202.941 68.128,201.982 68.721 C 197.888 71.252,191.260 71.716,188.246 69.681 C 187.814 69.390,187.426 69.185,187.385 69.227 C 187.295 69.316,188.722 70.833,188.895 70.833 C 188.960 70.833,189.174 70.982,189.369 71.164 C 191.381 73.039,196.848 73.383,201.134 71.905 C 202.659 71.379,204.844 70.188,205.915 69.299 C 206.007 69.222,206.441 68.887,206.878 68.555 C 207.786 67.864,207.800 67.669,207.081 65.750 C 205.361 61.164,205.039 60.601,204.504 61.245 M281.167 62.226 C 281.167 62.276,281.275 62.733,281.407 63.241 C 282.292 66.639,277.809 69.538,274.185 67.911 C 272.119 66.984,269.607 68.870,270.714 70.517 C 271.264 71.336,271.943 71.367,272.780 70.612 C 273.130 70.296,273.735 69.872,274.123 69.670 L 274.829 69.302 275.540 69.641 C 280.223 71.882,285.257 67.795,282.811 63.738 C 282.351 62.976,281.167 61.886,281.167 62.226 M122.333 65.248 C 122.333 65.302,122.500 65.662,122.705 66.048 C 123.269 67.114,123.254 69.457,122.679 70.069 C 122.105 70.681,121.635 70.610,120.687 69.768 C 119.427 68.649,118.910 68.539,117.630 69.114 C 116.371 69.679,114.900 69.734,113.531 69.268 C 112.331 68.859,112.257 69.052,113.259 69.974 C 114.897 71.483,117.560 71.954,119.437 71.067 C 120.600 70.517,121.280 70.616,122.200 71.470 C 123.451 72.630,123.811 72.714,124.513 72.013 C 125.043 71.483,125.228 69.289,124.831 68.244 C 124.428 67.183,122.333 64.671,122.333 65.248 " stroke="none" fill="#040404" fill-rule="evenodd"></path><path id="path2" d="M140.750 36.584 C 138.937 36.790,138.454 36.885,136.667 37.389 C 135.029 37.850,131.879 39.277,131.550 39.706 C 131.363 39.950,131.524 42.047,132.007 45.667 C 132.185 46.996,132.372 48.646,132.423 49.333 C 132.527 50.721,133.157 55.905,133.690 59.750 C 133.881 61.125,134.100 62.891,134.176 63.674 C 134.253 64.457,134.465 66.032,134.646 67.174 C 134.828 68.316,135.066 70.027,135.176 70.978 L 135.376 72.705 136.063 72.612 C 136.950 72.492,140.328 71.901,142.250 71.529 C 143.559 71.276,143.746 71.198,143.715 70.911 C 143.696 70.731,143.528 69.571,143.343 68.333 C 143.027 66.224,142.308 60.951,142.081 59.080 L 141.979 58.242 143.254 58.307 C 147.885 58.541,152.310 55.194,154.130 50.083 C 155.051 47.497,154.672 42.561,153.426 40.913 C 153.289 40.732,153.175 40.465,153.172 40.321 C 153.166 40.020,151.528 38.333,151.242 38.333 C 151.137 38.333,150.918 38.185,150.754 38.004 C 150.590 37.823,150.297 37.627,150.103 37.568 C 149.909 37.509,149.420 37.312,149.016 37.131 C 147.418 36.414,144.153 36.198,140.750 36.584 M162.417 37.598 C 161.775 38.085,161.100 38.601,160.917 38.744 C 160.733 38.887,160.096 39.354,159.500 39.783 C 158.904 40.212,158.330 40.642,158.223 40.739 C 158.116 40.837,157.651 41.179,157.189 41.500 C 156.077 42.272,156.059 42.198,158.426 46.417 C 158.847 47.167,159.591 48.541,160.727 50.667 C 160.947 51.079,161.354 51.829,161.632 52.333 C 161.909 52.837,162.443 53.850,162.819 54.583 C 163.195 55.317,163.796 56.440,164.153 57.079 L 164.803 58.241 164.485 58.688 C 164.310 58.934,164.167 59.191,164.167 59.261 C 164.167 59.330,163.849 59.806,163.461 60.318 C 162.712 61.307,161.885 62.466,160.477 64.500 C 160.001 65.188,159.567 65.787,159.512 65.833 C 159.279 66.030,157.667 68.487,157.667 68.647 C 157.667 68.817,159.381 70.000,159.628 70.000 C 159.695 70.000,160.387 70.384,161.167 70.853 C 163.293 72.133,164.605 72.833,164.876 72.833 C 165.010 72.833,166.274 71.093,167.685 68.966 C 169.096 66.840,171.000 64.038,171.917 62.741 C 173.894 59.943,176.607 56.084,178.706 53.083 C 179.539 51.892,181.193 49.454,182.381 47.667 C 183.568 45.879,184.721 44.154,184.941 43.833 L 185.343 43.250 184.935 42.917 C 184.710 42.733,184.277 42.411,183.971 42.201 C 181.968 40.820,179.348 38.974,178.974 38.681 C 178.172 38.053,177.350 38.677,176.687 40.417 C 176.652 40.508,176.518 40.705,176.389 40.853 C 176.057 41.235,175.000 43.011,175.000 43.187 C 175.000 43.267,174.941 43.333,174.869 43.333 C 174.797 43.333,174.599 43.577,174.429 43.875 C 174.258 44.173,173.623 45.155,173.018 46.056 C 172.412 46.958,171.842 47.817,171.750 47.964 C 171.658 48.111,171.446 48.386,171.279 48.574 C 171.111 48.763,170.865 49.174,170.733 49.489 L 170.491 50.062 170.223 49.679 C 169.060 48.018,164.833 39.873,164.833 39.292 C 164.833 38.991,163.892 36.886,163.712 36.785 C 163.641 36.745,163.058 37.111,162.417 37.598 M252.931 41.936 C 252.666 46.584,252.527 50.131,252.483 53.333 L 252.471 54.250 251.920 53.083 C 250.882 50.885,249.477 46.879,246.912 38.811 C 246.777 38.386,246.667 37.886,246.667 37.699 C 246.667 37.264,244.896 37.328,240.417 37.927 C 238.767 38.147,237.154 38.348,236.833 38.372 C 236.118 38.427,236.109 38.484,235.846 44.333 C 235.749 46.487,235.521 50.200,235.338 52.583 C 235.155 54.967,235.004 57.517,235.003 58.250 C 235.002 58.983,234.808 62.121,234.571 65.223 C 234.335 68.326,234.166 70.888,234.196 70.917 C 234.282 71.003,239.629 71.333,240.935 71.333 L 242.119 71.333 242.230 69.542 C 242.409 66.640,242.830 53.798,242.834 51.083 C 242.837 49.399,242.891 48.665,243.001 48.833 C 243.229 49.184,244.426 53.002,244.806 54.592 C 244.981 55.320,245.279 56.404,245.469 57.000 C 245.902 58.357,246.308 59.813,246.583 61.000 C 246.700 61.504,246.962 62.517,247.165 63.250 C 247.368 63.983,247.723 65.296,247.953 66.167 C 248.997 70.113,249.153 70.419,250.111 70.403 C 253.351 70.350,259.523 70.097,259.574 70.016 C 259.650 69.892,260.620 57.580,261.340 47.583 C 261.518 45.108,261.745 42.296,261.844 41.333 C 261.943 40.371,262.066 39.123,262.117 38.560 L 262.209 37.537 261.563 37.433 C 260.283 37.228,256.651 36.843,254.960 36.734 L 253.234 36.622 252.931 41.936 M219.833 37.669 C 218.942 37.832,216.955 38.547,216.639 38.818 C 216.517 38.923,216.042 39.250,215.583 39.545 C 211.833 41.956,208.155 48.289,207.489 53.479 C 207.411 54.086,207.265 54.996,207.164 55.500 C 206.613 58.266,207.081 63.430,208.158 66.477 C 210.118 72.018,214.556 74.455,220.465 73.235 C 230.959 71.067,235.160 53.912,228.031 42.333 C 226.964 40.600,224.554 38.333,223.779 38.333 C 223.636 38.333,223.480 38.269,223.431 38.190 C 223.191 37.802,220.911 37.472,219.833 37.669 M198.333 38.139 C 197.371 38.388,196.321 38.733,196.000 38.903 C 195.679 39.074,195.280 39.283,195.113 39.366 C 193.950 39.947,193.503 40.220,193.244 40.506 C 193.081 40.686,192.877 40.833,192.789 40.833 C 192.252 40.833,188.141 44.869,187.086 46.432 C 186.720 46.974,186.371 47.454,186.310 47.500 C 186.249 47.546,185.789 48.408,185.288 49.417 C 182.377 55.275,182.180 62.727,184.835 66.586 C 185.412 67.425,187.085 69.167,187.314 69.167 C 187.407 69.167,187.832 69.402,188.257 69.689 C 189.980 70.852,192.739 71.240,195.933 70.769 C 199.488 70.244,201.857 69.119,205.795 66.084 C 205.928 65.981,203.904 60.319,203.546 59.792 C 203.058 59.073,203.050 59.070,202.623 59.456 C 201.832 60.172,198.642 61.761,197.311 62.102 C 195.096 62.670,191.714 61.335,191.182 59.683 C 190.096 56.310,193.403 49.557,196.577 48.668 C 197.243 48.482,197.647 48.490,199.291 48.724 C 200.354 48.875,201.251 48.971,201.285 48.937 C 201.363 48.859,201.923 45.227,202.162 43.247 C 202.332 41.836,202.741 39.138,202.938 38.125 L 203.026 37.667 201.555 37.676 C 200.516 37.682,199.569 37.818,198.333 38.139 M145.399 46.419 C 146.752 47.061,146.892 49.329,145.646 50.436 C 144.796 51.192,140.965 51.881,140.755 51.316 C 140.493 50.612,140.243 46.978,140.445 46.810 C 141.187 46.194,144.391 45.941,145.399 46.419 M220.870 48.507 C 223.629 49.274,225.119 55.516,223.588 59.896 C 223.272 60.802,222.898 61.670,222.756 61.826 C 222.615 61.982,222.498 62.179,222.496 62.263 C 222.470 63.317,219.550 64.799,218.075 64.507 C 217.621 64.418,217.063 64.307,216.833 64.262 C 213.525 63.607,213.366 55.049,216.581 50.670 C 217.783 49.032,219.551 48.141,220.870 48.507 M268.077 49.177 C 266.412 49.661,265.143 51.857,264.849 54.761 C 264.485 58.364,265.219 59.316,266.947 57.480 C 267.438 56.959,268.179 56.418,268.855 56.087 C 271.218 54.931,272.179 53.759,272.299 51.887 L 272.378 50.652 271.630 49.935 C 270.694 49.039,269.460 48.775,268.077 49.177 M120.833 50.615 C 120.421 50.860,120.058 51.123,120.027 51.200 C 119.996 51.277,119.853 51.457,119.709 51.600 C 118.479 52.830,120.053 56.119,122.299 57.012 C 123.446 57.468,124.049 57.863,124.871 58.696 C 126.343 60.188,126.920 59.740,126.908 57.118 C 126.883 52.007,123.888 48.801,120.833 50.615 M211.470 51.753 C 212.324 51.892,213.278 52.112,213.589 52.242 L 214.155 52.478 213.918 53.281 C 213.257 55.520,213.167 56.130,213.167 58.342 C 213.167 63.197,214.991 65.685,218.583 65.731 C 222.076 65.776,224.179 63.258,225.076 57.958 C 225.190 57.287,225.273 57.251,226.167 57.492 C 226.487 57.579,227.537 57.734,228.499 57.838 C 229.461 57.941,230.265 58.043,230.285 58.063 C 230.306 58.084,230.147 58.959,229.933 60.009 C 228.604 66.516,225.727 70.304,221.066 71.683 C 213.396 73.952,208.167 69.107,208.167 59.733 C 208.167 56.086,209.035 51.498,209.725 51.501 C 209.831 51.501,210.616 51.615,211.470 51.753 M278.000 52.112 C 276.558 52.604,275.091 53.741,274.166 55.084 C 272.309 57.783,272.672 58.881,275.052 57.759 C 275.528 57.535,276.479 57.281,277.167 57.196 C 279.308 56.932,280.931 55.848,281.313 54.430 C 281.730 52.880,279.770 51.508,278.000 52.112 M110.989 53.845 C 109.260 55.696,111.671 58.500,114.993 58.500 C 115.352 58.500,116.252 58.695,116.993 58.934 C 119.022 59.589,119.303 59.145,118.075 57.225 C 117.759 56.731,117.500 56.287,117.500 56.238 C 117.500 55.943,116.418 54.851,115.432 54.151 L 114.281 53.333 112.874 53.333 C 111.518 53.333,111.450 53.352,110.989 53.845 M252.140 55.481 C 252.559 56.434,252.924 57.146,252.951 57.064 C 252.978 56.982,253.057 56.241,253.125 55.416 L 253.250 53.917 254.000 53.972 C 254.977 54.045,257.699 54.600,258.708 54.933 C 259.639 55.239,259.591 54.895,259.259 58.867 C 259.127 60.452,258.936 63.212,258.835 65.000 C 258.734 66.787,258.615 68.486,258.571 68.776 L 258.491 69.301 256.620 69.396 C 255.592 69.449,253.761 69.522,252.551 69.559 L 250.353 69.627 249.932 68.439 C 249.526 67.291,249.296 66.529,248.161 62.583 C 247.442 60.084,245.867 55.001,245.670 54.544 C 245.534 54.229,245.567 54.156,245.880 54.079 C 246.764 53.859,248.526 53.705,249.897 53.727 L 251.378 53.750 252.140 55.481 M190.500 55.018 C 190.500 55.119,190.380 55.663,190.233 56.226 C 189.504 59.015,190.199 61.415,192.000 62.328 C 195.043 63.872,198.633 63.459,202.000 61.177 C 202.412 60.897,202.796 60.668,202.852 60.667 C 203.185 60.665,204.784 65.287,204.609 65.743 C 204.003 67.323,197.819 69.703,194.250 69.732 C 187.598 69.784,183.993 66.105,184.002 59.273 C 184.006 56.619,183.558 57.027,188.083 55.559 C 190.548 54.759,190.500 54.770,190.500 55.018 M241.667 57.583 C 241.593 58.775,241.479 62.086,241.413 64.940 C 241.346 67.795,241.244 70.208,241.186 70.302 C 241.085 70.466,238.314 70.326,236.542 70.066 L 235.833 69.962 235.836 69.189 C 235.838 68.764,235.949 66.167,236.084 63.417 C 236.219 60.667,236.330 58.179,236.331 57.888 C 236.333 57.401,236.399 57.338,237.198 57.073 C 237.674 56.915,238.854 56.424,239.821 55.983 C 241.940 55.015,241.830 54.919,241.667 57.583 M140.777 56.898 C 140.805 56.917,141.171 59.480,141.911 64.833 C 142.146 66.529,142.355 68.479,142.377 69.165 L 142.417 70.414 140.583 70.781 C 139.575 70.983,138.179 71.200,137.482 71.263 L 136.214 71.377 136.101 69.980 C 136.040 69.212,135.872 67.533,135.729 66.250 C 134.874 58.570,134.892 58.378,136.600 57.230 C 137.162 56.852,140.345 56.599,140.777 56.898 M170.217 59.216 C 173.074 59.204,173.175 59.214,172.967 59.512 C 169.449 64.531,168.783 65.524,166.516 69.124 C 164.749 71.931,164.961 71.770,163.848 71.145 C 162.750 70.529,160.374 68.840,159.960 68.382 C 159.636 68.023,159.520 68.216,163.409 62.667 C 164.340 61.337,165.276 59.964,165.488 59.614 C 165.863 58.996,165.894 58.981,166.562 59.104 C 166.940 59.173,168.585 59.224,170.217 59.216 M275.667 59.983 C 275.006 60.093,274.055 60.509,272.000 61.587 C 269.362 62.970,267.653 66.857,268.880 68.684 C 269.460 69.547,270.044 69.519,271.083 68.582 C 272.321 67.464,272.906 67.338,274.185 67.911 C 277.881 69.570,282.273 66.651,281.381 63.128 C 280.734 60.570,278.737 59.471,275.667 59.983 M112.877 61.390 C 111.205 62.112,110.138 63.644,110.122 65.346 C 110.093 68.455,114.344 70.589,117.630 69.114 C 118.910 68.539,119.427 68.649,120.687 69.768 C 123.161 71.965,124.147 67.934,121.942 64.636 C 120.332 62.229,115.195 60.389,112.877 61.390 M89.382 66.677 C 88.199 67.035,87.861 69.073,88.846 69.902 C 90.277 71.106,92.164 70.258,92.166 68.410 C 92.167 67.057,90.846 66.234,89.382 66.677 M301.541 66.618 C 300.959 66.730,300.333 67.671,300.334 68.432 C 300.335 69.737,301.527 70.739,302.722 70.439 C 304.678 69.948,304.746 66.991,302.810 66.604 C 302.272 66.496,302.167 66.497,301.541 66.618 M73.083 79.945 C 70.697 81.171,71.467 84.772,74.157 84.967 C 75.906 85.094,76.998 84.075,76.999 82.316 C 77.001 80.269,74.913 79.005,73.083 79.945 M316.837 79.959 C 315.641 80.560,315.090 82.395,315.734 83.633 C 316.542 85.186,318.764 85.481,320.039 84.206 C 322.206 82.039,319.593 78.574,316.837 79.959 M97.035 82.521 C 94.994 83.110,94.096 86.514,95.500 88.339 C 97.744 91.254,102.333 89.703,102.333 86.030 C 102.333 83.296,99.912 81.692,97.035 82.521 M292.458 82.490 C 290.550 83.105,289.574 85.842,290.565 87.797 C 292.071 90.766,296.669 90.405,297.523 87.250 C 298.387 84.061,295.629 81.469,292.458 82.490 M133.389 85.739 C 130.059 86.781,129.893 92.072,133.146 93.510 C 135.905 94.731,139.169 92.718,139.166 89.797 C 139.162 86.701,136.436 84.786,133.389 85.739 M157.917 85.743 C 157.458 85.851,156.933 86.001,156.750 86.077 C 153.760 87.318,152.500 88.120,152.500 88.783 C 152.500 89.574,153.015 89.516,154.888 88.515 C 160.345 85.600,162.949 86.558,165.083 92.266 C 166.317 95.564,170.300 96.019,174.417 93.333 C 175.974 92.317,176.600 92.122,178.667 92.011 C 180.414 91.917,180.417 91.916,180.468 91.470 C 180.629 90.082,175.348 90.562,173.661 92.088 C 171.039 94.461,167.606 94.180,166.318 91.486 C 164.862 88.440,164.701 88.187,163.412 86.901 C 162.077 85.569,160.268 85.188,157.917 85.743 M237.715 85.764 C 236.365 86.263,234.274 88.906,233.426 91.184 C 232.314 94.169,228.762 94.546,225.750 91.999 C 224.027 90.542,219.072 90.086,219.199 91.397 L 219.250 91.917 220.917 92.009 C 222.471 92.096,223.861 92.389,224.250 92.711 C 228.083 95.886,232.680 95.854,234.277 92.642 C 234.475 92.243,234.823 91.542,235.049 91.083 C 235.797 89.567,235.969 89.296,236.750 88.391 C 238.198 86.714,239.386 86.440,241.758 87.237 C 243.060 87.674,244.838 88.464,245.000 88.677 C 245.214 88.958,246.235 89.348,246.636 89.302 C 247.310 89.224,247.337 88.522,246.684 88.039 C 244.104 86.132,239.725 85.021,237.715 85.764 M255.893 85.801 C 255.239 86.069,254.167 86.863,254.167 87.079 C 254.167 87.135,254.006 87.398,253.809 87.664 C 253.245 88.426,253.172 90.395,253.669 91.421 C 255.676 95.567,261.667 94.228,261.667 89.634 C 261.667 86.541,258.775 84.621,255.893 85.801 M112.960 94.594 C 110.678 95.833,112.695 99.276,115.003 98.082 C 115.750 97.696,116.189 95.924,115.706 95.244 C 115.105 94.398,113.863 94.104,112.960 94.594 M277.283 94.792 C 276.281 95.551,276.409 97.519,277.497 98.082 C 278.536 98.619,279.579 98.367,280.152 97.441 C 281.367 95.475,279.118 93.399,277.283 94.792 M151.563 98.094 C 149.979 99.050,150.089 101.784,151.743 102.569 C 153.028 103.179,154.663 102.762,155.295 101.663 C 156.719 99.188,154.023 96.610,151.563 98.094 M238.047 98.016 C 235.790 99.461,236.783 102.833,239.467 102.833 C 241.468 102.833,242.635 100.843,241.737 98.960 C 241.173 97.778,239.205 97.274,238.047 98.016 " stroke="none" fill="#4186b6" fill-rule="evenodd"></path><path id="path3" d="M184.417 85.983 L 183.583 86.083 183.592 86.708 C 183.596 87.052,183.615 89.340,183.633 91.792 L 183.667 96.250 187.241 96.250 L 190.815 96.250 191.000 95.500 C 191.537 93.317,191.410 93.500,192.387 93.500 L 193.262 93.500 193.566 94.848 C 193.845 96.084,193.900 96.188,194.227 96.098 C 194.423 96.044,194.865 95.953,195.208 95.895 C 195.956 95.770,195.956 95.770,195.436 93.680 C 195.088 92.284,194.819 91.088,193.934 87.000 L 193.736 86.083 192.284 86.035 C 190.869 85.988,190.833 85.996,190.835 86.369 C 190.836 86.578,190.647 87.612,190.416 88.667 C 190.185 89.721,189.810 91.446,189.584 92.500 C 188.817 96.064,188.870 95.904,188.851 94.696 L 188.833 93.642 187.336 93.759 L 185.839 93.876 185.795 89.898 C 185.745 85.451,185.870 85.808,184.417 85.983 M202.770 87.458 C 202.381 89.471,201.718 92.626,201.313 94.395 C 200.923 96.094,200.941 96.132,202.157 96.200 L 203.063 96.250 203.189 95.667 C 203.258 95.346,203.361 94.727,203.417 94.292 L 203.520 93.500 204.490 93.500 L 205.460 93.500 205.647 94.240 C 205.749 94.648,205.834 95.154,205.836 95.365 C 205.841 96.098,206.031 96.206,206.923 95.981 C 207.536 95.827,207.747 95.824,207.796 95.972 C 207.836 96.091,208.244 96.167,208.847 96.167 L 209.833 96.167 209.854 93.458 C 209.869 91.532,209.912 90.991,210.002 91.583 C 210.072 92.042,210.287 93.029,210.481 93.778 C 210.675 94.526,210.833 95.343,210.833 95.593 C 210.833 96.042,210.841 96.045,211.708 95.941 C 212.190 95.884,212.736 95.836,212.923 95.835 C 213.223 95.834,213.309 95.598,213.673 93.792 L 214.083 91.750 214.130 94.133 L 214.176 96.515 215.285 96.466 L 216.394 96.417 216.406 91.536 L 216.417 86.656 214.750 86.703 L 213.083 86.750 212.800 88.250 C 212.645 89.075,212.432 90.294,212.327 90.958 C 212.107 92.355,211.900 92.503,211.744 91.375 C 211.684 90.940,211.461 89.908,211.248 89.083 C 211.035 88.258,210.813 87.227,210.754 86.792 C 210.633 85.903,210.673 85.917,208.896 86.103 L 207.910 86.206 207.948 90.728 C 207.982 94.754,207.960 95.177,207.756 94.583 C 207.629 94.217,207.521 93.767,207.516 93.583 C 207.505 93.219,206.881 90.405,206.213 87.708 L 205.790 86.000 204.421 86.000 L 203.052 86.000 202.770 87.458 M195.833 87.333 L 195.833 88.333 196.693 88.333 L 197.553 88.333 197.439 92.258 L 197.326 96.184 198.288 96.133 L 199.250 96.083 199.295 92.208 L 199.339 88.333 200.170 88.333 L 201.000 88.333 201.000 87.333 L 201.000 86.333 198.417 86.333 L 195.833 86.333 195.833 87.333 M192.733 89.879 C 193.295 91.557,193.311 91.500,192.272 91.500 L 191.377 91.500 191.583 90.616 C 191.790 89.723,192.201 88.477,192.265 88.546 C 192.284 88.566,192.495 89.166,192.733 89.879 M204.996 90.162 C 205.077 90.485,205.195 90.919,205.258 91.125 C 205.367 91.484,205.330 91.500,204.417 91.500 C 203.584 91.500,203.473 91.463,203.551 91.208 C 203.600 91.048,203.767 90.467,203.921 89.917 C 204.075 89.367,204.236 88.804,204.280 88.667 C 204.368 88.387,204.751 89.187,204.996 90.162 " stroke="none" fill="#a4542c" fill-rule="evenodd"></path><path id="path4" d="M213.762 53.262 C 213.701 53.506,213.683 53.738,213.722 53.777 C 213.761 53.817,213.843 53.649,213.905 53.405 C 213.966 53.161,213.984 52.929,213.945 52.889 C 213.906 52.850,213.823 53.018,213.762 53.262 M248.750 53.772 C 249.928 53.896,251.463 53.907,251.391 53.792 C 251.349 53.723,250.624 53.679,249.782 53.693 C 248.939 53.708,248.475 53.744,248.750 53.772 M253.232 54.069 C 253.183 54.199,253.174 54.518,253.213 54.778 C 253.273 55.183,253.287 55.163,253.308 54.637 C 253.326 54.207,253.420 54.002,253.625 53.948 C 253.898 53.877,253.898 53.871,253.620 53.853 C 253.456 53.842,253.282 53.939,253.232 54.069 M259.375 56.250 C 259.377 56.617,259.411 56.747,259.451 56.540 C 259.491 56.332,259.490 56.032,259.448 55.873 C 259.406 55.714,259.374 55.883,259.375 56.250 M253.024 56.583 C 253.002 57.081,252.954 57.187,252.833 57.000 C 252.744 56.862,252.672 56.825,252.672 56.917 C 252.672 57.008,252.742 57.194,252.827 57.329 C 253.049 57.680,253.212 57.208,253.122 56.474 C 253.056 55.938,253.052 55.942,253.024 56.583 M213.064 58.417 C 213.064 59.517,213.091 59.945,213.124 59.368 C 213.156 58.792,213.156 57.892,213.123 57.368 C 213.090 56.845,213.063 57.317,213.064 58.417 M208.209 57.417 C 208.211 57.783,208.245 57.914,208.285 57.706 C 208.324 57.499,208.323 57.199,208.281 57.040 C 208.239 56.880,208.207 57.050,208.209 57.417 M136.552 57.292 C 136.377 57.452,136.317 57.530,136.418 57.465 C 136.519 57.400,136.785 57.274,137.009 57.184 C 137.267 57.081,137.316 57.017,137.143 57.011 C 136.993 57.005,136.727 57.131,136.552 57.292 M184.045 58.000 C 184.045 58.413,184.078 58.581,184.118 58.375 C 184.157 58.169,184.157 57.831,184.118 57.625 C 184.078 57.419,184.045 57.587,184.045 58.000 M236.375 57.917 C 236.377 58.283,236.411 58.414,236.451 58.206 C 236.491 57.999,236.490 57.699,236.448 57.540 C 236.406 57.380,236.374 57.550,236.375 57.917 M241.548 58.250 C 241.549 58.708,241.581 58.876,241.620 58.623 C 241.658 58.369,241.657 57.994,241.617 57.789 C 241.578 57.584,241.546 57.792,241.548 58.250 M228.292 57.951 C 228.498 57.991,228.835 57.991,229.042 57.951 C 229.248 57.911,229.079 57.879,228.667 57.879 C 228.254 57.879,228.085 57.911,228.292 57.951 M259.205 58.333 C 259.205 58.654,259.240 58.785,259.282 58.625 C 259.323 58.465,259.323 58.202,259.282 58.042 C 259.240 57.881,259.205 58.012,259.205 58.333 M167.625 59.284 C 167.831 59.324,168.169 59.324,168.375 59.284 C 168.581 59.245,168.412 59.212,168.000 59.212 C 167.587 59.212,167.419 59.245,167.625 59.284 M171.125 59.284 C 171.331 59.324,171.669 59.324,171.875 59.284 C 172.081 59.245,171.912 59.212,171.500 59.212 C 171.088 59.212,170.919 59.245,171.125 59.284 M236.225 61.167 C 236.225 61.946,236.254 62.265,236.289 61.875 C 236.324 61.485,236.324 60.848,236.289 60.458 C 236.254 60.069,236.225 60.387,236.225 61.167 M259.039 60.333 C 259.039 60.654,259.073 60.785,259.115 60.625 C 259.157 60.465,259.157 60.202,259.115 60.042 C 259.073 59.881,259.039 60.012,259.039 60.333 M141.205 60.500 C 141.205 60.821,141.240 60.952,141.282 60.792 C 141.323 60.631,141.323 60.369,141.282 60.208 C 141.240 60.048,141.205 60.179,141.205 60.500 M184.045 60.667 C 184.045 61.079,184.078 61.248,184.118 61.042 C 184.157 60.835,184.157 60.498,184.118 60.292 C 184.078 60.085,184.045 60.254,184.045 60.667 M135.212 60.833 C 135.212 61.246,135.245 61.415,135.284 61.208 C 135.324 61.002,135.324 60.665,135.284 60.458 C 135.245 60.252,135.212 60.421,135.212 60.833 M241.398 62.750 C 241.398 63.942,241.425 64.407,241.457 63.785 C 241.489 63.162,241.489 62.187,241.457 61.618 C 241.424 61.049,241.398 61.558,241.398 62.750 M164.333 61.333 C 164.138 61.608,164.015 61.833,164.061 61.833 C 164.106 61.833,164.304 61.608,164.500 61.333 C 164.696 61.058,164.819 60.833,164.773 60.833 C 164.727 60.833,164.529 61.058,164.333 61.333 M208.205 62.000 C 208.205 62.321,208.240 62.452,208.282 62.292 C 208.323 62.131,208.323 61.869,208.282 61.708 C 208.240 61.548,208.205 61.679,208.205 62.000 M258.885 62.750 C 258.886 63.300,258.917 63.505,258.954 63.205 C 258.991 62.906,258.990 62.456,258.952 62.205 C 258.914 61.955,258.884 62.200,258.885 62.750 M135.379 62.667 C 135.379 63.079,135.411 63.248,135.451 63.042 C 135.491 62.835,135.491 62.498,135.451 62.292 C 135.411 62.085,135.379 62.254,135.379 62.667 M236.057 64.583 C 236.058 65.317,236.087 65.596,236.122 65.204 C 236.157 64.812,236.157 64.212,236.121 63.871 C 236.085 63.529,236.057 63.850,236.057 64.583 M258.720 65.167 C 258.720 65.762,258.750 66.006,258.787 65.708 C 258.824 65.410,258.824 64.923,258.787 64.625 C 258.750 64.327,258.720 64.571,258.720 65.167 M142.039 66.500 C 142.039 66.821,142.073 66.952,142.115 66.792 C 142.157 66.631,142.157 66.369,142.115 66.208 C 142.073 66.048,142.039 66.179,142.039 66.500 M241.231 68.083 C 241.232 69.275,241.258 69.741,241.290 69.118 C 241.323 68.496,241.322 67.521,241.290 66.951 C 241.257 66.382,241.231 66.892,241.231 68.083 M186.500 66.893 C 186.912 67.333,187.475 67.850,187.750 68.041 C 188.329 68.442,188.283 68.393,186.833 67.077 C 185.870 66.202,185.833 66.182,186.500 66.893 M202.292 67.262 C 201.669 67.600,201.707 67.741,202.333 67.417 C 202.608 67.274,202.833 67.123,202.833 67.079 C 202.833 66.972,202.815 66.978,202.292 67.262 M235.881 67.917 C 235.882 68.375,235.915 68.543,235.953 68.289 C 235.991 68.036,235.990 67.661,235.951 67.456 C 235.911 67.251,235.880 67.458,235.881 67.917 M142.205 67.833 C 142.205 68.154,142.240 68.285,142.282 68.125 C 142.323 67.965,142.323 67.702,142.282 67.542 C 142.240 67.381,142.205 67.512,142.205 67.833 M258.548 68.083 C 258.549 68.542,258.581 68.709,258.620 68.456 C 258.658 68.203,258.657 67.828,258.617 67.623 C 258.578 67.418,258.546 67.625,258.548 68.083 M159.667 68.052 C 159.667 68.081,159.910 68.325,160.208 68.594 L 160.750 69.083 160.260 68.542 C 159.804 68.037,159.667 67.923,159.667 68.052 M136.045 69.167 C 136.045 69.579,136.078 69.748,136.118 69.542 C 136.157 69.335,136.157 68.998,136.118 68.792 C 136.078 68.585,136.045 68.754,136.045 69.167 M225.573 69.042 L 225.083 69.583 225.625 69.094 C 226.130 68.638,226.243 68.500,226.115 68.500 C 226.086 68.500,225.842 68.744,225.573 69.042 M211.500 69.917 C 211.811 70.237,212.103 70.500,212.149 70.500 C 212.195 70.500,211.978 70.237,211.667 69.917 C 211.356 69.596,211.064 69.333,211.018 69.333 C 210.972 69.333,211.189 69.596,211.500 69.917 M254.048 69.457 C 254.578 69.490,255.403 69.490,255.881 69.456 C 256.359 69.422,255.925 69.395,254.917 69.396 C 253.908 69.396,253.517 69.424,254.048 69.457 M196.042 69.615 C 196.202 69.657,196.465 69.657,196.625 69.615 C 196.785 69.573,196.654 69.539,196.333 69.539 C 196.012 69.539,195.881 69.573,196.042 69.615 M250.542 69.615 C 250.702 69.657,250.965 69.657,251.125 69.615 C 251.285 69.573,251.154 69.539,250.833 69.539 C 250.512 69.539,250.381 69.573,250.542 69.615 M193.380 69.789 C 193.818 69.824,194.493 69.823,194.880 69.788 C 195.267 69.754,194.908 69.725,194.083 69.726 C 193.258 69.726,192.942 69.755,193.380 69.789 M136.209 70.750 C 136.211 71.117,136.245 71.247,136.285 71.040 C 136.324 70.832,136.323 70.532,136.281 70.373 C 136.239 70.214,136.207 70.383,136.209 70.750 M238.458 70.284 C 238.665 70.324,239.002 70.324,239.208 70.284 C 239.415 70.245,239.246 70.212,238.833 70.212 C 238.421 70.212,238.252 70.245,238.458 70.284 M163.500 70.908 C 163.500 70.954,163.725 71.108,164.000 71.250 C 164.275 71.392,164.500 71.471,164.500 71.425 C 164.500 71.379,164.275 71.226,164.000 71.083 C 163.725 70.941,163.500 70.862,163.500 70.908 M136.960 71.285 C 137.168 71.324,137.468 71.323,137.627 71.281 C 137.786 71.239,137.617 71.207,137.250 71.209 C 136.883 71.211,136.753 71.245,136.960 71.285 M216.625 72.123 C 217.106 72.157,217.894 72.157,218.375 72.123 C 218.856 72.089,218.463 72.062,217.500 72.062 C 216.537 72.062,216.144 72.089,216.625 72.123 " stroke="none" fill="#86a38c" fill-rule="evenodd"></path></g></svg>