<svg id="Capa_1" data-name="Capa 1" xmlns="http://www.w3.org/2000/svg" xmlns:xlink="http://www.w3.org/1999/xlink" viewBox="0 0 399.98 207.89"><defs><style>.cls-1{fill:none;}.cls-2{clip-path:url(#clip-path);}.cls-3{fill:#4590c0;}.cls-4{fill:#f6c43a;}.cls-5{clip-path:url(#clip-path-2);}.cls-6{fill:#366999;}.cls-7{fill:#c19738;}</style><clipPath id="clip-path" transform="translate(-35.02 -138.14)"><rect class="cls-1" x="214.21" y="105.07" width="215.66" height="220.62"/></clipPath><clipPath id="clip-path-2" transform="translate(-35.02 -138.14)"><rect class="cls-1" x="-409.86" y="-268.72" width="841.89" height="595.28"/></clipPath></defs><title>Serpientes1</title><g class="cls-2"><path class="cls-3" d="M330.13,199a10.48,10.48,0,0,1,7.15-12.73l97.72-29v31.92L376.82,206.7a10.49,10.49,0,0,0-7.18,12.48l4.47,18.67-33.52.86Z" transform="translate(-35.02 -138.14)"/><path class="cls-3" d="M164,324.5l20.23-46.18a10.45,10.45,0,0,1,5.89-5.6l70.83-26.83a10.48,10.48,0,0,1,13.7,6.61l11.18,35a10.5,10.5,0,0,0,12.85,6.91l3.88-1.1,25-7.08,13.9-3.93a10.49,10.49,0,0,0,7.29-12.77L347,263l32.89-1,6.21,26a10.48,10.48,0,0,1-7.47,12.56l-51.08,13.8-25,6.76-23.77,6.43A10.5,10.5,0,0,1,266,320.49l-9.19-28.72a10.5,10.5,0,0,0-13.2-6.79L211,295.48a10.46,10.46,0,0,0-6.43,5.83L191,332.86a10.47,10.47,0,0,1-9.63,6.34h-7.76A10.49,10.49,0,0,1,164,324.5" transform="translate(-35.02 -138.14)"/><path class="cls-4" d="M327.53,339.16a6.86,6.86,0,0,1-6.86,6.86H309.38a6.87,6.87,0,0,1-6.87-6.86V321l25-6.76Z" transform="translate(-35.02 -138.14)"/><path class="cls-4" d="M309.2,239.52l31.39-.81,33.52-.86L428,236.46a6.86,6.86,0,0,1,7,6.86v10.19a6.85,6.85,0,0,1-6.64,6.86l-48.49,1.54L347,263l-12.8.4a6.88,6.88,0,0,0-6.65,6.86v16l-25,7.08V246.38a6.87,6.87,0,0,1,6.69-6.86" transform="translate(-35.02 -138.14)"/></g><g class="cls-5"><path class="cls-6" d="M304.47,210.91a8.79,8.79,0,1,0,8.79-8.78,8.79,8.79,0,0,0-8.79,8.78" transform="translate(-35.02 -138.14)"/><path class="cls-6" d="M232.54,237.9a4.39,4.39,0,1,0,4.39-4.4,4.4,4.4,0,0,0-4.39,4.4" transform="translate(-35.02 -138.14)"/><path class="cls-6" d="M382.14,142.53a4.39,4.39,0,1,0,4.39-4.39,4.4,4.4,0,0,0-4.39,4.39" transform="translate(-35.02 -138.14)"/><path class="cls-6" d="M242.34,306.3a5.81,5.81,0,1,0,5.8-5.8,5.81,5.81,0,0,0-5.8,5.8" transform="translate(-35.02 -138.14)"/><path class="cls-7" d="M406,222.84a5.65,5.65,0,1,0,5.65-5.65,5.65,5.65,0,0,0-5.65,5.65" transform="translate(-35.02 -138.14)"/><path class="cls-7" d="M390.92,297.85a8.79,8.79,0,1,0,8.79-8.79,8.79,8.79,0,0,0-8.79,8.79" transform="translate(-35.02 -138.14)"/><path class="cls-7" d="M278.57,242.29a8.79,8.79,0,1,0,8.78-8.79,8.78,8.78,0,0,0-8.78,8.79" transform="translate(-35.02 -138.14)"/><polyline class="cls-3" points="179.19 125.43 0 190.42 75 190.42 179.19 156.29"/></g></svg>