<?xml version="1.0" encoding="utf-8"?>
<!-- Generator: Adobe Illustrator 22.1.0, SVG Export Plug-In . SVG Version: 6.00 Build 0)  -->
<svg version="1.1" id="Layer_1" xmlns="http://www.w3.org/2000/svg" xmlns:xlink="http://www.w3.org/1999/xlink" x="0px" y="0px"
	 viewBox="0 0 1081 612.8" style="enable-background:new 0 0 1081 612.8;" xml:space="preserve">
<style type="text/css">
	.st0{fill:#E6B520;}
</style>
<g>
	<path class="st0" d="M1080.8,3.8c0,201.9,0,403.8,0.1,605.6c0,2.8-0.6,3.4-3.4,3.4c-357.8-0.1-715.5-0.1-1073.2,0
		c-2.8,0-3.4-0.6-3.4-3.4C0.8,408,0.8,206.6,0.6,5.3c0-3.8,0.8-5.3,4.6-4.5c1,0.2,2,0,3,0C8.8,1,9.4,1.3,10,1.4
		c7.5,1,13.4,4.5,17.2,11.2c1.5,2.6,3.6,4.8,6,6.7c11.2,8.9,24,14.2,38,16.7c33.5,5.9,67.3,9.5,101.4,9c15.6-0.3,31.2-0.1,46.8,2
		c19.7,2.6,38.6,8.3,56.5,16.7c16.7,7.8,34,10.9,52.3,10.8c17.7-0.1,35.1-2.9,52.3-6.5c15.2-3.2,29.8-2.4,43.7,4.9
		c1.2,0.6,2.6,1.1,3.9,1.2c12.6,1.6,25.2,3.5,37.9,4.7c19.7,1.7,39.4,3.2,59.1,4.3c15.1,0.9,30.2,2.1,45.3,0.3
		c7-0.9,13.9-2.8,21.1-3c23.1-0.9,45.9,2.2,68.8,4.1c12.1,1,24.2,2.5,36.2,0.4c10-1.8,19.2-6,28.7-9.5c22.3-8.4,45-15.7,67.4-23.7
		c30.3-10.8,61.2-19.1,92.9-24.7c28.7-5,57.4-9.2,86.3-12.7c24.7-2.9,49.4-5.4,74.2-7.5C1057.6,5.7,1069.2,4.7,1080.8,3.8z"/>
</g>
</svg>
