<?xml version="1.0" encoding="utf-8"?>
<!-- Generator: Adobe Illustrator 22.1.0, SVG Export Plug-In . SVG Version: 6.00 Build 0)  -->
<svg version="1.1" id="Layer_1" xmlns="http://www.w3.org/2000/svg" xmlns:xlink="http://www.w3.org/1999/xlink" x="0px" y="0px"
	 viewBox="0 0 1080.8 616.4" style="enable-background:new 0 0 1080.8 616.4;" xml:space="preserve">
<style type="text/css">
	.st0{fill:#D68027;}
	.st1{fill:#FEFEFE;}
</style>
<g>
	<path class="st0" d="M1080,0.5c0.2,0.2,0.8-0.4,0.8,0.4c0,1,0,2,0,3c0,203.9,0,407.8,0,611.6c-360,0-720,0-1080,0
		c0-192.8,0-385.5,0-578.2C2,37.1,3.2,37,4.5,36.9c31.5-1.1,63,0.8,94.3,4.3c47.5,5.3,94.1,14.9,140.3,26.9
		c17.7,4.6,35.1,10.6,53.1,14.3c17.6,3.7,35.7,4.6,53.4,7.3c10.7,1.7,21.5,3.4,31.5,7.7c12.1,5.2,24.7,7.9,37.9,7
		c17.5-1.2,34.7-4.1,52.1-6.1c16-1.9,32.1-3.8,48.2-1.8c7.9,1,15.8,2.4,23.8,2c35.7-2.1,71.2-5.2,106.5-11.1
		c12.7-2.1,25.7-3.5,37.4-9.8c2.2-1.2,4.7-1.7,7.1-2.2c9.6-1.8,19.2-0.2,28.7,1.3c16.9,2.7,33.9,4.7,51.1,4
		c16.1-0.7,31.7-3.4,46.2-11c30.6-15.8,63.3-23.2,97.7-23.6c34.2-0.4,68-4.1,101.5-11c14.8-3.1,29.1-7,41.3-16.5
		c7.2-5.6,14.5-11,21.8-16.5C1079.1,1.7,1079.9,1.4,1080,0.5z"/>
	<path class="st1" d="M0.8,615.5c360,0,720,0,1080,0c-0.2,0.2,0.4,0.8-0.4,0.8c-1,0-2,0-3,0c-357.8,0-715.5,0-1073.2,0
		C3,616.2,1.6,617.1,0.8,615.5z"/>
</g>
</svg>
