<?xml version="1.0" encoding="utf-8"?>
<!-- Generator: Adobe Illustrator 22.1.0, SVG Export Plug-In . SVG Version: 6.00 Build 0)  -->
<svg version="1.1" id="Layer_1" xmlns="http://www.w3.org/2000/svg" xmlns:xlink="http://www.w3.org/1999/xlink" x="0px" y="0px"
	 viewBox="0 0 1085.2 600.2" style="enable-background:new 0 0 1085.2 600.2;" xml:space="preserve">
<style type="text/css">
	.st0{fill:#16B0BE;}
	.st1{fill:#F5FBFC;}
	.st2{fill:#FEFEFE;}
</style>
<path class="st0" d="M0.5,248.2c0-59.8,0-119.5,0-179.2c1.1-4.5,0.6-9,0.6-13.5c0.1-1.4,0.1-2.7,0.2-4.1c0.3-11.2,0.6-22.5,1.5-33.7
	c0.4-5.4,0.4-5.3,5.7-5.1C38,14,66.9,19,95.3,27.5c27,8,53.4,18,79.9,27.6c19.9,7.2,40,13,61.2,15c23.1,2.2,46.3,3.7,69.3,7.2
	c9.6,1.5,19.3,2.8,28.2,7.1c11.9,5.7,24.3,8.9,37.6,8.6c19.9-0.5,39.6-3.5,59.4-4.8c15.5-1.1,31-2,46.3,1.2
	c6.5,1.4,13.1,2.1,19.7,1.9c39.6-1.1,79.1-3.1,118.4-9c5.5-0.8,11.5-0.6,16.5-3.2c12.5-6.5,25.4-6.9,39-4.5
	c16.1,2.9,32,6.4,48.5,6.8c19.7,0.5,38.8-1.4,57-9.9c27.3-12.8,56-19.1,86.3-19.4c25.5-0.3,51,0.7,76.4-2.6
	c17.5-2.3,35-3.9,52.1-8.3c15.4-4,29.2-10.8,38.3-24.8c3-4.6,7.9-6.3,13-7.2c2.6-0.4,5.2-0.7,7.8-0.9c11.3-0.9,22-3.8,32.6-7.5
	c0.5,0,1,0,1.5,0c0,199.8,0,399.5,0,599.2c-359.8,0-719.5,0-1079.2,0c-1.1-1-0.6-2.4-0.6-3.5C3.6,528.1,2.9,459.7,2,391.4
	C1.4,343.7,1.7,296,0.5,248.2z"/>
<path class="st1" d="M0.5,248.2C1.7,296,1.4,343.7,2,391.4c0.9,68.4,1.6,136.7,2.4,205.1c0,1.2-0.5,2.5,0.6,3.5
	c-3.8,0.8-4.6-0.7-4.6-4.5C0.5,479.8,0.5,364,0.5,248.2z"/>
<path class="st2" d="M1084.2,600c0-199.8,0-399.5,0-599.2c0.2,0.2,0.8-0.4,0.8,0.4c0,1,0,2,0,3c0,197.5,0,395,0,592.5
	C1085,597.7,1085.8,599.2,1084.2,600z"/>
<path class="st1" d="M0.5,55.5c0.2,0,0.4,0,0.6,0c0,4.5,0.6,9-0.6,13.5C0.5,64.5,0.5,60,0.5,55.5z"/>
</svg>
