<svg xmlns="http://www.w3.org/2000/svg" xmlns:xlink="http://www.w3.org/1999/xlink" width="1350" height="900" viewBox="0 0 1350 900"><defs><clipPath id="a"><path d="M947,486.667h535.206V390.444s-46.688-22.775-92.807,0-100.778-13.1-100.778-13.1-19.358-19.928-113.873,11.957c-62.631,21.124-95.244,13.511-110.139,5.961a65.635,65.635,0,0,0-32.454-7.2c-3.65.154-28.821,12.407-32.779,12.623-10.493.569-3.758-5.847-14.234-7.4-15.373-2.277-21.067,2.278-24.124,10.2" transform="translate(-947 -371.198)" fill="none"/></clipPath></defs><g transform="translate(2255 183.997)" style="isolation:isolate"><rect width="1350" height="900" transform="translate(-2255 -183.997)" fill="#fff"/><g transform="translate(-2103 126.298)"><g transform="translate(170.565 0.003)"><g transform="translate(7.402 7.402)" opacity="0.5" style="mix-blend-mode:multiply;isolation:isolate"><path d="M811.531,425.556q7.971-8.011,20.435-4.88,30.809,11.33,27.466,32.289-3.057,8.011-8.671,2.784-7.174-7.732-12.845-4.06-7.06,4.5-18.129.945-5.164-2.055-6.895-3.986Q801.721,438.452,811.531,425.556Zm-.569-35.87q5.164-3.61,12.953-.569,9.008,4.287,16.068,16.46,5,8.791-4.834,5.17a19.752,19.752,0,0,0-9.007-2.277q-3.5.393-10.4-2.727a14.617,14.617,0,0,1-4.282-3q-6.85-6.878-.5-13.05Zm42.2-13.9q8-2.061,14.735,4.5,7.277,8.506,7.447,25.132-.051,11.957-8.672,3.946a18.774,18.774,0,0,0-8.541-6.172q-4.117-1-9.787-7.339A14.945,14.945,0,0,1,845.5,390.8q-3.223-10.545,7.652-15Z" transform="translate(-806.944 -318.613)"/><path d="M1047.5,290.328q14.678,24.244.723,51.1-19.74,27.973-45.646,23.02,1.617,14.57,7.339,53.521-24.483,4.783-33.365,5.728-9.617-67.755-13.665-108.146Q960,293.056,960,289.662q23.412-14.462,54.09-13.9Q1035.322,276.259,1047.5,290.328ZM997.459,337.2q25.8,2.169,24.409-13.665-.94-6.61-6.946-8.227-11.08-1.9-19.62,3.154Q996.741,330.549,997.459,337.2Z" transform="translate(-872.855 -275.743)"/><path d="M1169.071,278.9q0,.108,7.368,16.711a320.094,320.094,0,0,0,20.1,37.282q9.617-12.241,31.691-48.208,5.779,3.986,28.747,20.07-4.9,9.958-56.271,82.462-1.555,1.554-26.191,39.087-9.173-3.838-29.687-17.463,25.234-35.87,25.462-35.87l4.116-6.616q-17.65-33.2-35.141-65.17v-.33Q1159.955,285.516,1169.071,278.9Z" transform="translate(-950.054 -277.102)"/><path d="M1412.053,285.092q-2.278,19.023-6.166,45.709h-.279c-4.412-.569-9.616-1.458-11.632-1.8a16.455,16.455,0,0,0-1.748-.222c-9.93-.626-16.671,6.126-24.482,20.736a20.863,20.863,0,0,0-1.521,3.672q-6.348,20.958,1.048,26.493,10.061,7.721,21.966,5.944,5.608-.444,23.913-11.894,3.553,3.331,10.955,27.13-13.745,10.34-20.8,13.79c-6.673,3.223-19.313,6.439-30.859,6.263-8.307-.114-15.458-1.765-21.46-6.263q-27.637-18.567-16.791-64.942,9.953-34.811,43.648-56.049Q1394.545,284.2,1412.053,285.092Z" transform="translate(-1032.68 -279.736)"/><path d="M1589.291,303.157a104.085,104.085,0,0,1,13.665,36.44,114.718,114.718,0,0,1,1.173,24.859q-10.517,74.895-68.324,65.887-16.466-4.783-25.36-24.13A87.812,87.812,0,0,1,1504,375.182a121.647,121.647,0,0,1,4.726-36.195q4.834-14.843,9.286-22.575,1.111-2.995,7.726-11.342Q1561.6,265.909,1589.291,303.157Zm-56.435,71.285q2.943,19.9,16.4,20.9,11.849,1.782,19.626-11.171,8.677-16.569,5.284-33.809-4.783-21.966-16.29-22.074-14.684,1.281-22.411,24.022A56.5,56.5,0,0,0,1532.856,374.442Z" transform="translate(-1107.107 -279.729)"/><path d="M1813.986,281.153q-2.944,37.812-10.066,133.056-30.023.666-40.995,1.332-2.119-.831-9.787-31.161t-17.9-60.245q-1.56,71.12-3.114,95.523-21.659-1.053-31.623-2.226,3.985-64.105,8.062-132.162,25.411-3.337,41.2-4.618,16.8,54.09,25.137,69.947,1.441-36.035,3.331-72.668Q1800.7,279.536,1813.986,281.153Z" transform="translate(-1191.738 -276.685)"/><path d="M1949.793,382.118a14.472,14.472,0,0,1-2.892,5.062q-5.62,6.337-9.788,7.339a18.8,18.8,0,0,0-8.506,6.172q-8.677,8.011-8.677-3.946.108-16.626,7.453-25.132,6.667-6.559,14.678-4.5Q1952.993,371.556,1949.793,382.118Zm32.579,57.831q-1.708,1.936-6.895,3.986-11.057,3.553-18.123-.945-5.693-3.673-12.9,4.06-5.557,5.215-8.62-2.784-3.337-20.941,27.409-32.289,12.526-3.109,20.5,4.9Q1993.55,429.768,1982.373,439.948Zm1.389-45.874a15.007,15.007,0,0,1-4.225,3q-6.9,3.114-10.454,2.727a19.359,19.359,0,0,0-8.951,2.277q-9.839,3.616-4.891-5.17,7.054-12.179,16.124-16.46,7.783-3.058,12.9.569,6.309,6.166-.523,13.056Z" transform="translate(-1286.231 -314.877)"/></g><path d="M798.531,412.556q7.971-8.011,20.435-4.88,30.809,11.331,27.466,32.289-3.057,8.011-8.672,2.784-7.174-7.732-12.845-4.06-7.06,4.5-18.129.945-5.164-2.055-6.9-3.986Q788.721,425.452,798.531,412.556Zm-.569-35.87q5.164-3.61,12.953-.569,9.008,4.287,16.068,16.46,5,8.791-4.834,5.17a19.751,19.751,0,0,0-9.007-2.277q-3.5.393-10.4-2.727a14.618,14.618,0,0,1-4.282-3q-6.849-6.878-.5-13.05Zm42.2-13.9q8-2.061,14.735,4.5,7.277,8.506,7.447,25.132-.051,11.957-8.672,3.946a18.773,18.773,0,0,0-8.541-6.172q-4.116-1-9.787-7.339A14.944,14.944,0,0,1,832.5,377.8q-3.223-10.545,7.652-15Z" transform="translate(-793.944 -303.433)" fill="#458fbf"/><path d="M1034.5,277.328q14.678,24.244.723,51.1-19.74,27.973-45.647,23.02,1.617,14.57,7.339,53.521-24.483,4.783-33.365,5.728-9.617-67.755-13.665-108.146Q947,280.056,947,276.662q23.412-14.462,54.09-13.9Q1022.322,263.259,1034.5,277.328ZM984.459,324.2q25.8,2.169,24.409-13.665-.94-6.61-6.946-8.227-11.08-1.9-19.62,3.154Q983.741,317.549,984.459,324.2Z" transform="translate(-859.855 -262.743)" fill="#458fbf"/><path d="M1156.07,265.9q0,.108,7.368,16.711a320.087,320.087,0,0,0,20.1,37.282q9.617-12.241,31.691-48.208,5.779,3.986,28.747,20.07-4.9,9.958-56.271,82.462-1.555,1.554-26.191,39.087-9.173-3.838-29.687-17.463,25.235-35.87,25.462-35.87l4.116-6.616q-17.65-33.2-35.141-65.17v-.33Q1146.955,272.516,1156.07,265.9Z" transform="translate(-937.054 -264.102)" fill="#458fbf"/><path d="M1399.053,272.092q-2.277,19.023-6.166,45.709h-.279c-4.413-.569-9.617-1.458-11.632-1.8a16.443,16.443,0,0,0-1.748-.222c-9.93-.626-16.671,6.126-24.483,20.736a20.874,20.874,0,0,0-1.52,3.672q-6.348,20.958,1.048,26.493,10.061,7.721,21.966,5.944,5.608-.444,23.913-11.894,3.553,3.331,10.955,27.13-13.745,10.34-20.8,13.79c-6.673,3.223-19.313,6.44-30.86,6.263-8.307-.114-15.458-1.765-21.459-6.263q-27.637-18.567-16.791-64.942,9.953-34.811,43.648-56.049Q1381.545,271.2,1399.053,272.092Z" transform="translate(-1019.68 -266.736)" fill="#458fbf"/><path d="M1576.292,290.157a104.087,104.087,0,0,1,13.665,36.44,114.665,114.665,0,0,1,1.173,24.859q-10.516,74.889-68.324,65.887-16.466-4.783-25.36-24.13A87.8,87.8,0,0,1,1491,362.182a121.644,121.644,0,0,1,4.726-36.195q4.834-14.843,9.286-22.575,1.11-2.995,7.726-11.342Q1548.6,252.909,1576.292,290.157Zm-56.436,71.285q2.943,19.9,16.4,20.9,11.849,1.782,19.626-11.171,8.677-16.569,5.283-33.809-4.782-21.966-16.29-22.074-14.684,1.281-22.41,24.022A56.511,56.511,0,0,0,1519.856,361.442Z" transform="translate(-1094.107 -266.729)" fill="#458fbf"/><path d="M1800.987,268.153q-2.944,37.812-10.067,133.056-30.023.666-40.994,1.332-2.119-.831-9.787-31.162t-17.9-60.245q-1.56,71.12-3.115,95.523-21.658-1.053-31.623-2.226,3.986-64.105,8.062-132.162,25.411-3.337,41.2-4.618,16.8,54.09,25.138,69.947,1.441-36.035,3.331-72.668Q1787.7,266.536,1800.987,268.153Z" transform="translate(-1178.737 -263.685)" fill="#458fbf"/><path d="M1936.794,369.118a14.481,14.481,0,0,1-2.893,5.062q-5.62,6.337-9.787,7.339a18.8,18.8,0,0,0-8.506,6.172q-8.677,8.011-8.677-3.946.109-16.625,7.453-25.132,6.667-6.559,14.678-4.5Q1939.993,358.556,1936.794,369.118Zm32.579,57.831q-1.708,1.936-6.9,3.986-11.057,3.553-18.123-.945-5.693-3.673-12.9,4.059-5.557,5.215-8.62-2.784-3.337-20.941,27.409-32.289,12.526-3.109,20.5,4.9Q1980.549,416.768,1969.373,426.948Zm1.389-45.874a15,15,0,0,1-4.225,3q-6.9,3.114-10.454,2.727a19.356,19.356,0,0,0-8.95,2.277q-9.838,3.616-4.891-5.17,7.054-12.179,16.125-16.46,7.783-3.058,12.9.569,6.309,6.166-.524,13.056Z" transform="translate(-1273.231 -299.887)" fill="#458fbf"/><text transform="translate(299.673 251.885)" fill="#a0572e" font-size="54" font-family="DimboRegular, Dimbo"><tspan x="0" y="0">LATAM</tspan></text><g transform="translate(87.145 64.673)" clip-path="url(#a)"><path d="M1037.406,292.966c5.124,14.234,11.387,27.33,0,43.272-16.284,22.775-34.009,20.657-45.863,17.65.695,8.7,4.629,31.947,7.146,55.229a204.958,204.958,0,0,1-25.274,4.316q-6.326-60.723-8.956-96.9-1.9-20.173-1.879-23.213a55.312,55.312,0,0,1,37.248-12.276C1009.542,281.391,1031.866,284.545,1037.406,292.966ZM987.871,334.53c19.66,5.341,33.115-3.564,32.522-13.027-.416-3.951-4.737-12.2-7.481-13.175-5.068-1.139-23.953-1.281-27.9,1.708C985.656,317.255,987.558,330.544,987.871,334.53Z" transform="translate(-953.709 -332.365)" fill="#f5c33a"/><path d="M1158.636,281c0,.063,10.818,17.081,14.969,26.3,3.985,8.854,7.846,15.521,12.93,27.216a304.5,304.5,0,0,0,23.173-33.86c2.5,2.363,18.476-1.48,28.4,8-2.6,5.3-26.692,36.781-52.775,74.917q-1.139,1.2-20.053,30.905c-4.059-2.374-11.849-6.263-20.742-14.348,12.822-18.869,20.6-29.607,20.7-29.607l6.491-10.385c-9.172-18.282-27.865-45.754-34.731-63.769l8.541-6.263C1155.544,282.332,1154.229,284.348,1158.636,281Z" transform="translate(-1028.82 -332.356)" fill="#f5c33a"/><path d="M1380.789,299.951c-1.047,10.425,9.782,10.716,8,25.348h-.193l-8.632-1.372.034.228c-6.241-1.429-21.893,7.681-28.725,31.025-3.61,12.332-3.416,21.636,3.416,27.9,4.617,4.23,17.32,6.667,22.775,5.694,2.574-.245,13.1-1.708,24.483-10.818,1.628,1.828,4.242,7.561,7.629,20.611-6.292,5.694-21.118,12.492-24.71,13.551a61.286,61.286,0,0,1-26.76,2.278c-5.694-.666-15.145-4.185-19.273-7.9q-18.995-15.271-11.541-53.413a79.039,79.039,0,0,1,30-46.119Q1368.753,299.2,1380.789,299.951Z" transform="translate(-1109.861 -340.488)" fill="#f5c33a"/><path d="M1577,308.546c5.8,8.66,9.679,20.571,11.957,31.885a79.525,79.525,0,0,1,0,26.191c-6.2,41.068-27.688,59.9-61.794,54.961q-14.564-3.929-22.427-19.848a67.806,67.806,0,0,1-5.694-25.513c-.262-9.787.336-21.744,3.416-31.8,2.847-8.142,4.777-12.276,7.4-16.512.655-1.645,5.21-10.818,9.11-15.373C1540.073,291.066,1560.667,288.122,1577,308.546Zm-58.076,62.631c0,10.249,7.4,23.344,15.942,25.052,6.918,1.384,19.808,2.511,26.76-10.818,6.832-13.1,9.679-27.9,5.124-46.119-3-12-10.869-18.527-17.651-18.22-12.526.569-21.636,9.167-26.191,21.636C1517.782,356.942,1518.921,365.414,1518.921,371.176Z" transform="translate(-1184.702 -338.265)" fill="#f5c33a"/><path d="M1799.917,280.277c-1.35,20.731-5.944,71.131-9.207,123.359-13.756.364-27.694.729-32.716,1.093-.968-.456-4.765-12.856-9.321-29.368-4.52-16.386-16.511-52.951-23.344-68.894-4.555,40.425-4.874,88.252-5.586,101.649q-14.912-.871-21.744-1.828c1.833-35.153,4.4-85.28,6.263-122.6,11.644-1.828,26.356-2.716,33.593-3.416,10.249,29.607,26.925,67.607,30.746,76.3,1.139-19.928,5.4-58.48,6.263-78.573C1785.153,278.882,1793.83,279.395,1799.917,280.277Z" transform="translate(-1270.405 -331.064)" fill="#f5c33a"/></g></g><g transform="translate(0 130.334)"><circle cx="10.249" cy="10.249" r="10.249" transform="translate(694.172 127.669)" fill="#356998"/><circle cx="16.722" cy="16.722" r="16.722" transform="translate(763.896 77.713)" fill="#356998"/><circle cx="15.026" cy="15.026" r="15.026" transform="translate(921.008 64.492)" fill="#356998"/><circle cx="10.522" cy="10.522" r="10.522" transform="translate(1024.656 53.8)" fill="#356998"/><circle cx="7.561" cy="7.561" r="7.561" transform="translate(962.703)" fill="#356998"/><circle cx="7.561" cy="7.561" r="7.561" transform="translate(865.227 114.255)" fill="#356998"/><circle cx="10.249" cy="10.249" r="10.249" transform="translate(331.031 127.669)" fill="#356998"/><circle cx="16.722" cy="16.722" r="16.722" transform="translate(248.36 77.713)" fill="#356998"/><circle cx="15.026" cy="15.026" r="15.026" transform="translate(94.64 64.492)" fill="#356998"/><circle cx="10.522" cy="10.522" r="10.522" transform="translate(0 53.8)" fill="#356998"/><circle cx="7.561" cy="7.561" r="7.561" transform="translate(67.874)" fill="#356998"/><circle cx="7.561" cy="7.561" r="7.561" transform="translate(165.35 114.255)" fill="#356998"/><path d="M1102,630.834s20.5-13.665,33.023-10.249c9.617,2.625,16.216,16.66,18.789,23.037a16.881,16.881,0,0,0,17.428,10.619c4.555-.5,10.152-2.522,16.967-7.208.211-.148.415-.3.621-.461,1.515-1.179,9.764-6.969,23.088-4.919" transform="translate(-759.63 -540.174)" fill="none" stroke="#356998" stroke-linecap="round" stroke-miterlimit="10" stroke-width="8"/><path d="M1691.867,630.834s-20.5-13.665-33.024-10.249c-9.617,2.625-16.215,16.66-18.789,23.037a16.881,16.881,0,0,1-17.428,10.619c-4.555-.5-10.152-2.522-16.967-7.208-.211-.148-.416-.3-.621-.461-1.514-1.179-9.765-6.969-23.088-4.919" transform="translate(-958.689 -540.174)" fill="none" stroke="#356998" stroke-linecap="round" stroke-miterlimit="10" stroke-width="8"/></g></g></g></svg>