<svg xmlns="http://www.w3.org/2000/svg" xmlns:xlink="http://www.w3.org/1999/xlink" width="600" height="159.796" viewBox="0 0 600 159.796"><defs><clipPath id="a"><path d="M947,437.451h307.09V382.241s-26.789-13.068-53.251,0-57.824-7.514-57.824-7.514-11.107-11.434-65.338,6.861c-35.936,12.12-54.649,7.752-63.2,3.42a37.66,37.66,0,0,0-18.621-4.129c-2.094.088-16.537,7.119-18.808,7.243-6.021.327-2.156-3.355-8.167-4.247-8.821-1.307-12.088,1.307-13.842,5.854" transform="translate(-947 -371.198)" fill="none"/></clipPath></defs><g transform="translate(0 -0.003)" style="isolation:isolate"><g transform="translate(97.867 0.003)"><g transform="translate(4.247 4.247)" opacity="0.5" style="mix-blend-mode:multiply;isolation:isolate"><path d="M809.576,404.134q4.574-4.6,11.725-2.8,17.677,6.5,15.76,18.527-1.754,4.6-4.975,1.6-4.116-4.436-7.37-2.329-4.051,2.581-10.4.542a11.016,11.016,0,0,1-3.956-2.287Q803.947,411.533,809.576,404.134Zm-.327-20.582q2.963-2.071,7.432-.327,5.168,2.46,9.219,9.445,2.872,5.044-2.774,2.966a11.333,11.333,0,0,0-5.168-1.307q-2.009.225-5.965-1.565a8.387,8.387,0,0,1-2.457-1.722q-3.93-3.946-.287-7.488Zm24.214-7.975q4.59-1.183,8.455,2.584,4.175,4.881,4.273,14.42-.029,6.861-4.975,2.264a10.772,10.772,0,0,0-4.9-3.541q-2.362-.575-5.616-4.211a8.575,8.575,0,0,1-1.633-2.9q-1.849-6.05,4.391-8.608Z" transform="translate(-806.944 -342.772)"/><path d="M1010.206,284.112q8.422,13.911.415,29.321-11.327,16.05-26.191,13.208.928,8.36,4.211,30.709-14.048,2.744-19.144,3.287-5.518-38.876-7.841-62.052Q960,285.677,960,283.73q13.434-8.3,31.036-7.975Q1003.218,276.039,1010.206,284.112Zm-28.713,26.9q14.806,1.245,14.005-7.841a5.2,5.2,0,0,0-3.986-4.721,16.082,16.082,0,0,0-11.258,1.81Q981.081,307.189,981.493,311.008Z" transform="translate(-909.998 -275.743)"/><path d="M1156.369,278.9q0,.062,4.227,9.588a183.662,183.662,0,0,0,11.536,21.392q5.518-7.024,18.184-27.661,3.316,2.287,16.495,11.516-2.81,5.714-32.287,47.315-.892.892-15.028,22.427-5.263-2.2-17.034-10.02,14.479-20.582,14.61-20.582l2.362-3.8q-10.127-19.049-20.163-37.393V291.5Q1151.139,282.7,1156.369,278.9Z" transform="translate(-1030.702 -277.869)"/><path d="M1377.567,285.06q-1.307,10.915-3.538,26.227h-.16c-2.532-.327-5.518-.836-6.674-1.036a9.453,9.453,0,0,0-1-.127c-5.7-.359-9.565,3.515-14.048,11.9a11.968,11.968,0,0,0-.872,2.107q-3.643,12.025.6,15.2a16.085,16.085,0,0,0,12.6,3.411q3.218-.255,13.721-6.825,2.039,1.911,6.286,15.567a84.433,84.433,0,0,1-11.934,7.912,44.148,44.148,0,0,1-17.707,3.594c-4.767-.065-8.87-1.013-12.313-3.594q-15.858-10.653-9.634-37.262,5.711-19.974,25.044-32.159A35.6,35.6,0,0,1,1377.567,285.06Z" transform="translate(-1159.89 -281.987)"/><path d="M1552.927,295.417a59.724,59.724,0,0,1,7.841,20.908,65.817,65.817,0,0,1,.673,14.263q-6.034,42.973-39.2,37.8-9.448-2.744-14.551-13.845a50.38,50.38,0,0,1-3.7-17.8,69.8,69.8,0,0,1,2.712-20.768,71.464,71.464,0,0,1,5.328-12.953q.637-1.718,4.433-6.508Q1537.041,274.045,1552.927,295.417Zm-32.382,40.9q1.689,11.418,9.412,11.993,6.8,1.023,11.261-6.41a28.781,28.781,0,0,0,3.032-19.4q-2.744-12.6-9.347-12.666-8.425.735-12.859,13.783A32.422,32.422,0,0,0,1520.546,336.319Z" transform="translate(-1276.261 -281.975)"/><path d="M1765.616,279.779q-1.689,21.7-5.776,76.344-17.227.382-23.522.764-1.215-.477-5.616-17.88t-10.271-34.567q-.9,40.807-1.787,54.809-12.427-.6-18.144-1.277,2.287-36.782,4.626-75.832,14.58-1.914,23.64-2.649,9.641,31.036,14.423,40.134.827-20.676,1.911-41.7Q1757.995,278.851,1765.616,279.779Z" transform="translate(-1408.583 -277.216)"/><path d="M1937.065,375.512a8.3,8.3,0,0,1-1.66,2.9q-3.224,3.636-5.616,4.211a10.788,10.788,0,0,0-4.881,3.541q-4.979,4.6-4.979-2.264.062-9.539,4.276-14.42,3.826-3.763,8.422-2.584Q1938.9,369.452,1937.065,375.512Zm18.693,33.182a10.794,10.794,0,0,1-3.956,2.287q-6.344,2.039-10.4-.542-3.267-2.107-7.4,2.329-3.189,2.992-4.946-1.6-1.914-12.016,15.727-18.527,7.187-1.784,11.761,2.81Q1962.171,402.852,1955.758,408.694Zm.8-26.322a8.609,8.609,0,0,1-2.424,1.722q-3.956,1.787-6,1.565a11.107,11.107,0,0,0-5.136,1.307q-5.645,2.075-2.806-2.966,4.048-6.988,9.252-9.445,4.466-1.754,7.4.327,3.62,3.538-.3,7.491Z" transform="translate(-1556.327 -336.93)"/></g><path d="M796.576,391.134q4.574-4.6,11.725-2.8,17.677,6.5,15.76,18.527-1.754,4.6-4.976,1.6-4.116-4.436-7.37-2.329-4.051,2.581-10.4.542a11.018,11.018,0,0,1-3.956-2.287Q790.947,398.533,796.576,391.134Zm-.327-20.582q2.963-2.071,7.432-.327,5.168,2.46,9.219,9.445,2.872,5.044-2.774,2.966a11.333,11.333,0,0,0-5.168-1.307q-2.009.225-5.965-1.565a8.387,8.387,0,0,1-2.457-1.722q-3.93-3.946-.287-7.488Zm24.214-7.975q4.59-1.183,8.455,2.584,4.175,4.881,4.273,14.42-.029,6.861-4.975,2.264a10.772,10.772,0,0,0-4.9-3.541q-2.362-.575-5.616-4.211a8.576,8.576,0,0,1-1.633-2.9q-1.849-6.05,4.391-8.608Z" transform="translate(-793.944 -328.521)" fill="#458fbf"/><path d="M997.206,271.112q8.422,13.911.415,29.321-11.327,16.05-26.191,13.208.928,8.36,4.211,30.709-14.048,2.744-19.144,3.286-5.518-38.876-7.841-62.052Q947,272.677,947,270.73q13.434-8.3,31.036-7.975Q990.218,263.039,997.206,271.112Zm-28.713,26.9q14.806,1.245,14.005-7.841a5.2,5.2,0,0,0-3.986-4.721,16.082,16.082,0,0,0-11.258,1.81Q968.081,294.189,968.493,298.008Z" transform="translate(-896.998 -262.743)" fill="#458fbf"/><path d="M1143.369,265.9q0,.062,4.228,9.588a183.659,183.659,0,0,0,11.535,21.392q5.518-7.024,18.184-27.661,3.316,2.287,16.495,11.516-2.809,5.714-32.287,47.315-.892.892-15.028,22.427-5.263-2.2-17.034-10.02,14.479-20.582,14.61-20.582l2.362-3.8q-10.127-19.049-20.163-37.393V278.5Q1138.139,269.7,1143.369,265.9Z" transform="translate(-1017.702 -264.869)" fill="#458fbf"/><path d="M1364.567,272.06q-1.307,10.915-3.538,26.227h-.16c-2.532-.327-5.518-.836-6.674-1.036a9.451,9.451,0,0,0-1-.127c-5.7-.359-9.566,3.515-14.048,11.9a11.988,11.988,0,0,0-.872,2.107q-3.642,12.025.6,15.2a16.085,16.085,0,0,0,12.6,3.411q3.218-.255,13.721-6.825,2.039,1.911,6.286,15.567a84.427,84.427,0,0,1-11.934,7.912,44.147,44.147,0,0,1-17.707,3.594c-4.766-.065-8.87-1.013-12.313-3.594q-15.857-10.653-9.634-37.262,5.711-19.974,25.044-32.159A35.6,35.6,0,0,1,1364.567,272.06Z" transform="translate(-1146.89 -268.987)" fill="#458fbf"/><path d="M1539.927,282.417a59.723,59.723,0,0,1,7.84,20.908,65.793,65.793,0,0,1,.673,14.263q-6.034,42.97-39.2,37.8-9.448-2.744-14.551-13.845a50.38,50.38,0,0,1-3.7-17.8,69.8,69.8,0,0,1,2.712-20.768,71.473,71.473,0,0,1,5.328-12.953q.637-1.718,4.433-6.508Q1524.04,261.045,1539.927,282.417Zm-32.382,40.9q1.689,11.418,9.412,11.993,6.8,1.023,11.261-6.41a28.781,28.781,0,0,0,3.032-19.4q-2.744-12.6-9.347-12.666-8.425.735-12.859,13.783A32.427,32.427,0,0,0,1507.546,323.319Z" transform="translate(-1263.26 -268.975)" fill="#458fbf"/><path d="M1752.616,266.779q-1.689,21.7-5.776,76.344-17.226.382-23.522.764-1.215-.477-5.616-17.88t-10.271-34.567q-.9,40.807-1.787,54.809-12.427-.6-18.144-1.277,2.287-36.782,4.626-75.832,14.58-1.914,23.639-2.649,9.641,31.036,14.423,40.134.827-20.676,1.911-41.7Q1744.995,265.851,1752.616,266.779Z" transform="translate(-1395.583 -264.216)" fill="#458fbf"/><path d="M1924.065,362.512a8.308,8.308,0,0,1-1.66,2.9q-3.224,3.636-5.616,4.211a10.787,10.787,0,0,0-4.881,3.541q-4.979,4.6-4.979-2.264.062-9.539,4.276-14.42,3.825-3.763,8.422-2.584Q1925.9,356.452,1924.065,362.512Zm18.693,33.182a10.8,10.8,0,0,1-3.956,2.287q-6.344,2.039-10.4-.542-3.267-2.107-7.4,2.329-3.189,2.992-4.946-1.6-1.915-12.016,15.727-18.527,7.187-1.784,11.761,2.81Q1949.171,389.852,1942.758,395.694Zm.8-26.321a8.607,8.607,0,0,1-2.424,1.722q-3.956,1.787-6,1.565a11.106,11.106,0,0,0-5.135,1.307q-5.645,2.074-2.806-2.966,4.048-6.988,9.252-9.445,4.466-1.754,7.4.327,3.62,3.538-.3,7.491Z" transform="translate(-1543.327 -322.789)" fill="#458fbf"/><text transform="translate(171.946 145.116)" fill="#a0572e" font-size="32" font-family="DimboRegular, Dimbo"><tspan x="0" y="0">LATAM</tspan></text><g transform="translate(50.002 37.108)" clip-path="url(#a)"><path d="M1005.514,287.875c2.94,8.167,6.534,15.681,0,24.829C996.17,325.771,986,324.556,979.2,322.831c.4,4.992,2.656,18.331,4.1,31.689A117.606,117.606,0,0,1,968.8,357q-3.63-34.842-5.139-55.6-1.088-11.575-1.078-13.319a31.737,31.737,0,0,1,21.372-7.043C989.525,281.233,1002.335,283.043,1005.514,287.875Zm-28.422,23.848c11.281,3.064,19-2.045,18.661-7.475-.238-2.267-2.718-7-4.293-7.56-2.908-.653-13.744-.735-16.008.98C975.821,301.812,976.912,309.437,977.091,311.724Z" transform="translate(-957.49 -310.481)" fill="#f5c33a"/><path d="M1149.414,281c0,.036,6.207,9.8,8.589,15.093,2.287,5.08,4.5,8.906,7.419,15.616a174.718,174.718,0,0,0,13.3-19.428c1.434,1.356,10.6-.849,16.3,4.59-1.49,3.042-15.315,21.1-30.281,42.986q-.654.689-11.506,17.733a59.844,59.844,0,0,1-11.9-8.233c7.357-10.827,11.82-16.988,11.878-16.988l3.724-5.959c-5.263-10.49-15.988-26.253-19.928-36.589l4.9-3.594C1147.64,281.764,1146.886,282.921,1149.414,281Z" transform="translate(-1074.929 -310.467)" fill="#f5c33a"/><path d="M1357.092,299.923c-.6,5.982,5.613,6.148,4.59,14.544h-.111l-4.953-.787.02.131c-3.581-.82-12.561,4.407-16.482,17.8-2.071,7.076-1.96,12.414,1.96,16.008,2.649,2.427,9.938,3.826,13.068,3.267a27.534,27.534,0,0,0,14.048-6.207c.934,1.049,2.434,4.338,4.378,11.826-3.61,3.267-12.117,7.168-14.178,7.775a35.163,35.163,0,0,1-15.354,1.307c-3.267-.382-8.69-2.4-11.058-4.534q-10.9-8.762-6.622-30.647a45.351,45.351,0,0,1,17.213-26.462A21.324,21.324,0,0,1,1357.092,299.923Z" transform="translate(-1201.639 -323.182)" fill="#f5c33a"/><path d="M1543.745,302.654c3.329,4.969,5.554,11.8,6.86,18.295a45.636,45.636,0,0,1,0,15.028c-3.558,23.564-15.887,34.371-35.456,31.535q-8.357-2.254-12.868-11.388a38.906,38.906,0,0,1-3.267-14.639c-.15-5.616.193-12.476,1.96-18.249a44.011,44.011,0,0,1,4.247-9.474,45.393,45.393,0,0,1,5.227-8.821C1522.56,292.625,1534.376,290.936,1543.745,302.654Zm-33.323,35.936c0,5.88,4.247,13.394,9.147,14.374,3.969.794,11.366,1.441,15.354-6.207,3.92-7.514,5.554-16.008,2.94-26.462-1.722-6.883-6.237-10.631-10.128-10.454-7.187.327-12.414,5.26-15.028,12.414C1509.77,330.423,1510.423,335.284,1510.423,338.59Z" transform="translate(-1318.655 -319.707)" fill="#f5c33a"/><path d="M1756.478,279.307c-.774,11.895-3.411,40.814-5.283,70.781-7.893.209-15.89.418-18.772.627-.555-.261-2.734-7.377-5.348-16.851-2.594-9.4-9.474-30.382-13.394-39.53-2.614,23.2-2.8,50.637-3.2,58.324q-8.556-.5-12.476-1.049c1.052-20.17,2.522-48.932,3.594-70.343,6.681-1.049,15.123-1.558,19.275-1.96,5.88,16.988,15.449,38.791,17.641,43.777.653-11.434,3.1-33.554,3.594-45.083C1748.007,278.506,1752.985,278.8,1756.478,279.307Z" transform="translate(-1452.655 -308.447)" fill="#f5c33a"/></g></g><g transform="translate(0 74.784)"><circle cx="5.88" cy="5.88" r="5.88" transform="translate(398.301 73.254)" fill="#356998"/><circle cx="9.595" cy="9.595" r="9.595" transform="translate(438.307 44.59)" fill="#356998"/><circle cx="8.621" cy="8.621" r="8.621" transform="translate(528.455 37.004)" fill="#356998"/><circle cx="6.037" cy="6.037" r="6.037" transform="translate(587.925 30.869)" fill="#356998"/><circle cx="4.338" cy="4.338" r="4.338" transform="translate(552.378)" fill="#356998"/><circle cx="4.338" cy="4.338" r="4.338" transform="translate(496.449 65.557)" fill="#356998"/><circle cx="5.88" cy="5.88" r="5.88" transform="translate(189.938 73.254)" fill="#356998"/><circle cx="9.595" cy="9.595" r="9.595" transform="translate(142.503 44.59)" fill="#356998"/><circle cx="8.621" cy="8.621" r="8.621" transform="translate(54.303 37.004)" fill="#356998"/><circle cx="6.037" cy="6.037" r="6.037" transform="translate(0 30.869)" fill="#356998"/><circle cx="4.338" cy="4.338" r="4.338" transform="translate(38.945)" fill="#356998"/><circle cx="4.338" cy="4.338" r="4.338" transform="translate(94.874 65.557)" fill="#356998"/><path d="M1102,626.232s11.761-7.841,18.948-5.88c5.518,1.506,9.3,9.559,10.781,13.218a9.686,9.686,0,0,0,10,6.093c2.614-.284,5.825-1.447,9.735-4.136.121-.085.238-.173.356-.265.869-.676,5.6-4,13.247-2.823" transform="translate(-905.555 -574.213)" fill="none" stroke="#356998" stroke-linecap="round" stroke-miterlimit="10" stroke-width="8"/><path d="M1645.018,626.232s-11.761-7.841-18.948-5.88c-5.518,1.506-9.3,9.559-10.781,13.218a9.686,9.686,0,0,1-10,6.093c-2.614-.284-5.825-1.447-9.735-4.136-.121-.085-.239-.173-.356-.265-.869-.676-5.6-4-13.247-2.823" transform="translate(-1224.336 -574.213)" fill="none" stroke="#356998" stroke-linecap="round" stroke-miterlimit="10" stroke-width="8"/></g></g></svg>